<svg width="240" height="360" viewBox="0 0 240 360" fill="none" xmlns="http://www.w3.org/2000/svg">
<g clip-path="url(#clip0_21_2272)">
<path d="M120 0H0V120H120V0Z" fill="#46FCAF"/>
<path d="M240 0H120V120H240V0Z" fill="#46FCAF"/>
<path d="M120 120H0V240H120V120Z" fill="#46FCAF"/>
<path d="M240 120H120V240H240V120Z" fill="#46FCAF"/>
<path d="M120 240H0V360H120V240Z" fill="#46FCAF"/>
<path d="M240 240H120V360H240V240Z" fill="#46FCAF"/>
<path d="M44 34.92V37.92C44.001 38.199 43.944 38.474 43.833 38.729C43.721 38.985 43.557 39.214 43.352 39.402C43.147 39.59 42.905 39.734 42.641 39.823C42.377 39.912 42.097 39.945 41.82 39.92C38.743 39.586 35.787 38.534 33.19 36.85C30.774 35.315 28.725 33.266 27.19 30.85C25.5 28.241 24.448 25.271 24.12 22.18C24.095 21.903 24.128 21.625 24.217 21.362C24.305 21.099 24.448 20.857 24.635 20.652C24.822 20.447 25.05 20.283 25.304 20.171C25.558 20.058 25.832 20 26.11 20H29.11C29.595 19.995 30.066 20.167 30.434 20.484C30.802 20.8 31.042 21.239 31.11 21.72C31.237 22.68 31.471 23.623 31.81 24.53C31.945 24.888 31.974 25.277 31.894 25.651C31.814 26.025 31.629 26.368 31.36 26.64L30.09 27.91C31.514 30.414 33.587 32.486 36.09 33.91L37.36 32.64C37.632 32.371 37.975 32.186 38.349 32.106C38.723 32.026 39.112 32.055 39.47 32.19C40.377 32.529 41.32 32.763 42.28 32.89C42.766 32.959 43.21 33.203 43.527 33.578C43.844 33.952 44.012 34.43 44 34.92Z" stroke="#0A0A0A" stroke-width="1.5" stroke-linecap="round" stroke-linejoin="round"/>
<path d="M140 18H56V42H140V18Z" fill="#0A0A0A" fill-opacity="0.1"/>
<path d="M73.7356 34.09H73.6996C72.5116 34.09 71.6836 33.442 71.6836 31.894V29.968C71.6836 28.42 72.5116 27.772 73.6996 27.772H73.7356C74.9416 27.772 75.7516 28.429 75.7516 29.959H75.0856C75.0856 28.789 74.6176 28.384 73.7356 28.384H73.6996C72.8086 28.384 72.3496 28.789 72.3496 29.95V31.894C72.3496 33.073 72.8086 33.478 73.6996 33.478H73.7356C74.6176 33.478 75.0856 33.073 75.0856 31.894H75.7516C75.7516 33.433 74.9416 34.09 73.7356 34.09ZM81.4001 34H80.6981L80.1671 32.101H78.0791L77.5481 34H76.8281L78.6101 27.862H79.6361L81.4001 34ZM79.0871 28.492L78.2501 31.48H79.9961L79.1681 28.492H79.0871ZM83.5745 27.862V33.379H86.5445V34H82.9085V27.862H83.5745ZM88.971 27.862V33.379H91.941V34H88.305V27.862H88.971ZM102.725 27.862V28.483H99.647V30.607H102.032V31.228H99.647V33.379H102.725V34H98.981V27.862H102.725ZM104.854 34H104.206V27.862H105.205L107.257 33.046H107.338V27.862H107.986V34H106.987L104.935 28.816H104.854V34ZM109.549 27.862H111.511C112.708 27.862 113.527 28.519 113.527 30.058V31.804C113.527 33.343 112.708 34 111.511 34H109.549V27.862ZM112.861 31.804V30.058C112.861 28.888 112.393 28.483 111.511 28.483H110.215V33.379H111.511C112.393 33.379 112.861 32.974 112.861 31.804ZM118.914 27.862V28.483H115.836V30.607H118.221V31.228H115.836V33.379H118.914V34H115.17V27.862H118.914ZM120.342 27.862H122.304C123.501 27.862 124.32 28.519 124.32 30.058V31.804C124.32 33.343 123.501 34 122.304 34H120.342V27.862ZM123.654 31.804V30.058C123.654 28.888 123.186 28.483 122.304 28.483H121.008V33.379H122.304C123.186 33.379 123.654 32.974 123.654 31.804Z" fill="#0A0A0A"/>
<path d="M32.558 79.176C31.502 79.176 30.5047 79.0147 29.566 78.692C28.6273 78.3547 27.7987 77.856 27.08 77.196C26.3613 76.536 25.7967 75.7147 25.386 74.732C24.99 73.7493 24.792 72.6127 24.792 71.322C24.792 70.2807 24.924 69.342 25.188 68.506C25.452 67.6553 25.826 66.9147 26.31 66.284C26.794 65.6533 27.3587 65.1253 28.004 64.7C28.664 64.2747 29.3753 63.9593 30.138 63.754C30.9153 63.534 31.722 63.424 32.558 63.424C33.834 63.424 34.978 63.6587 35.99 64.128C37.0167 64.5973 37.8453 65.2427 38.476 66.064C39.1213 66.8853 39.51 67.846 39.642 68.946H36.188C36.1147 68.4033 35.9093 67.934 35.572 67.538C35.2347 67.142 34.802 66.834 34.274 66.614C33.746 66.3793 33.1593 66.262 32.514 66.262C32.0153 66.262 31.5387 66.3353 31.084 66.482C30.644 66.614 30.2407 66.8193 29.874 67.098C29.522 67.362 29.214 67.6993 28.95 68.11C28.686 68.5207 28.4807 68.99 28.334 69.518C28.1873 70.046 28.114 70.64 28.114 71.3C28.114 72.4 28.3047 73.324 28.686 74.072C29.082 74.82 29.61 75.3847 30.27 75.766C30.9447 76.1473 31.7 76.338 32.536 76.338C33.196 76.338 33.79 76.228 34.318 76.008C34.846 75.7733 35.2787 75.458 35.616 75.062C35.968 74.6513 36.188 74.182 36.276 73.654H39.576C39.488 74.7393 39.1287 75.7 38.498 76.536C37.882 77.3573 37.0607 78.0027 36.034 78.472C35.022 78.9413 33.8633 79.176 32.558 79.176ZM44.5573 79.176C43.8386 79.176 43.2006 79.0293 42.6433 78.736C42.1006 78.4427 41.6753 78.0467 41.3673 77.548C41.0593 77.0493 40.9053 76.4847 40.9053 75.854C40.9053 75.1207 41.0813 74.4973 41.4333 73.984C41.7853 73.456 42.2693 73.0527 42.8853 72.774C43.5159 72.4807 44.2566 72.334 45.1073 72.334H46.7133C47.0506 72.334 47.2926 72.268 47.4393 72.136C47.6006 72.004 47.6813 71.806 47.6813 71.542C47.6813 71.0727 47.5053 70.6987 47.1533 70.42C46.8159 70.1267 46.3319 69.98 45.7013 69.98C45.2613 69.98 44.8873 70.068 44.5793 70.244C44.2859 70.4053 44.0586 70.618 43.8973 70.882C43.7359 71.146 43.6479 71.432 43.6333 71.74H40.9053C40.9493 70.992 41.1693 70.3173 41.5653 69.716C41.9759 69.1147 42.5406 68.638 43.2593 68.286C43.9926 67.9193 44.8653 67.736 45.8773 67.736C46.8013 67.736 47.6299 67.9047 48.3633 68.242C49.0966 68.5793 49.6686 69.0633 50.0793 69.694C50.5046 70.31 50.7173 71.036 50.7173 71.872V79H47.6813V77.46C47.5493 77.7973 47.3293 78.098 47.0213 78.362C46.7279 78.6113 46.3686 78.8093 45.9433 78.956C45.5179 79.1027 45.0559 79.176 44.5573 79.176ZM45.3273 76.954C46.0753 76.954 46.6546 76.7193 47.0653 76.25C47.4759 75.766 47.6813 75.1647 47.6813 74.446V74.314H45.5473C45.0339 74.314 44.6233 74.4387 44.3153 74.688C44.0073 74.9227 43.8533 75.26 43.8533 75.7C43.8533 76.0813 43.9853 76.3893 44.2493 76.624C44.5279 76.844 44.8873 76.954 45.3273 76.954ZM53.0978 79V63.094H56.1558V79H53.0978ZM58.6407 79V63.094H61.6987V79H58.6407ZM73.9283 79.176C72.799 79.176 71.8016 78.9267 70.9363 78.428C70.071 77.9147 69.4036 77.2253 68.9343 76.36C68.465 75.4947 68.2303 74.5267 68.2303 73.456C68.2303 72.6493 68.3623 71.9013 68.6263 71.212C68.905 70.5227 69.2936 69.914 69.7923 69.386C70.3056 68.858 70.907 68.4547 71.5963 68.176C72.3003 67.8827 73.0776 67.736 73.9283 67.736C74.911 67.736 75.7983 67.9193 76.5903 68.286C77.3823 68.6527 78.0276 69.1587 78.5263 69.804C79.025 70.4493 79.3036 71.2047 79.3623 72.07H76.2823C76.2236 71.7327 76.0843 71.4393 75.8643 71.19C75.6443 70.9407 75.3803 70.7427 75.0723 70.596C74.7643 70.4347 74.4196 70.354 74.0383 70.354C73.481 70.354 73.0043 70.4933 72.6083 70.772C72.2123 71.036 71.9116 71.3953 71.7063 71.85C71.501 72.3047 71.3983 72.84 71.3983 73.456C71.3983 74.0573 71.501 74.5927 71.7063 75.062C71.9263 75.5167 72.2343 75.8833 72.6303 76.162C73.0263 76.426 73.503 76.558 74.0603 76.558C74.6323 76.558 75.1236 76.404 75.5343 76.096C75.945 75.7733 76.209 75.37 76.3263 74.886H79.4283C79.3256 75.6927 79.0176 76.426 78.5043 77.086C78.0056 77.7313 77.3603 78.2447 76.5683 78.626C75.7763 78.9927 74.8963 79.176 73.9283 79.176ZM86.4568 79.176C85.3275 79.176 84.3228 78.9267 83.4428 78.428C82.5628 77.9293 81.8661 77.2547 81.3528 76.404C80.8541 75.5387 80.6048 74.556 80.6048 73.456C80.6048 72.356 80.8541 71.3807 81.3528 70.53C81.8661 69.6647 82.5628 68.9827 83.4428 68.484C84.3228 67.9853 85.3275 67.736 86.4568 67.736C87.6008 67.736 88.6055 67.9853 89.4708 68.484C90.3508 68.9827 91.0401 69.6647 91.5388 70.53C92.0521 71.3807 92.3088 72.356 92.3088 73.456C92.3088 74.556 92.0521 75.5387 91.5388 76.404C91.0401 77.2547 90.3508 77.9293 89.4708 78.428C88.6055 78.9267 87.6008 79.176 86.4568 79.176ZM86.4568 76.558C87.0141 76.558 87.4981 76.426 87.9088 76.162C88.3341 75.898 88.6568 75.5387 88.8768 75.084C89.1115 74.6147 89.2288 74.072 89.2288 73.456C89.2288 72.84 89.1115 72.3047 88.8768 71.85C88.6568 71.3807 88.3341 71.014 87.9088 70.75C87.4981 70.486 87.0141 70.354 86.4568 70.354C85.9141 70.354 85.4301 70.486 85.0048 70.75C84.5795 71.014 84.2495 71.3807 84.0148 71.85C83.7948 72.3047 83.6848 72.84 83.6848 73.456C83.6848 74.072 83.7948 74.6147 84.0148 75.084C84.2495 75.5387 84.5795 75.898 85.0048 76.162C85.4301 76.426 85.9141 76.558 86.4568 76.558ZM94.1974 79V67.912H97.2554V69.452C97.5487 68.9387 97.9667 68.528 98.5094 68.22C99.0667 67.8973 99.7194 67.736 100.467 67.736C101.215 67.736 101.89 67.9193 102.491 68.286C103.107 68.638 103.54 69.1293 103.789 69.76C103.995 69.364 104.288 69.0193 104.669 68.726C105.051 68.418 105.483 68.176 105.967 68C106.466 67.824 106.972 67.736 107.485 67.736C108.292 67.736 108.989 67.9193 109.575 68.286C110.177 68.638 110.639 69.1147 110.961 69.716C111.299 70.3173 111.467 70.9993 111.467 71.762V79H108.409V72.708C108.409 71.9893 108.233 71.4173 107.881 70.992C107.529 70.552 107.053 70.332 106.451 70.332C106.026 70.332 105.652 70.4493 105.329 70.684C105.021 70.904 104.779 71.2047 104.603 71.586C104.442 71.9527 104.361 72.378 104.361 72.862V79H101.303V72.708C101.303 71.9893 101.127 71.4173 100.775 70.992C100.423 70.552 99.9467 70.332 99.3454 70.332C98.92 70.332 98.546 70.4493 98.2234 70.684C97.9154 70.904 97.6734 71.2047 97.4974 71.586C97.336 71.9527 97.2554 72.378 97.2554 72.862V79H94.1974ZM113.834 83.488V67.912H116.892V69.078C117.244 68.6673 117.699 68.3447 118.256 68.11C118.813 67.8607 119.422 67.736 120.082 67.736C121.123 67.736 122.025 67.978 122.788 68.462C123.551 68.946 124.137 69.6133 124.548 70.464C124.959 71.3147 125.164 72.312 125.164 73.456C125.164 74.3067 125.047 75.084 124.812 75.788C124.577 76.492 124.233 77.1007 123.778 77.614C123.338 78.1127 122.81 78.5013 122.194 78.78C121.593 79.044 120.903 79.176 120.126 79.176C119.671 79.176 119.239 79.1173 118.828 79C118.417 78.8973 118.043 78.7433 117.706 78.538C117.383 78.318 117.112 78.0687 116.892 77.79V83.488H113.834ZM119.422 76.558C119.833 76.558 120.199 76.4847 120.522 76.338C120.859 76.1913 121.145 75.9787 121.38 75.7C121.629 75.4213 121.813 75.0987 121.93 74.732C122.062 74.3507 122.128 73.9253 122.128 73.456C122.128 72.5173 121.879 71.7693 121.38 71.212C120.896 70.64 120.243 70.354 119.422 70.354C119.026 70.354 118.659 70.4273 118.322 70.574C117.999 70.7207 117.713 70.9333 117.464 71.212C117.229 71.4907 117.046 71.8207 116.914 72.202C116.782 72.5687 116.716 72.9867 116.716 73.456C116.716 74.38 116.965 75.128 117.464 75.7C117.963 76.272 118.615 76.558 119.422 76.558ZM127.09 79V63.094H130.148V79H127.09ZM137.715 79.176C136.776 79.176 135.948 79.0147 135.229 78.692C134.51 78.3547 133.909 77.9073 133.425 77.35C132.956 76.7927 132.604 76.1767 132.369 75.502C132.134 74.8273 132.017 74.138 132.017 73.434C132.017 72.73 132.12 72.0407 132.325 71.366C132.545 70.6913 132.882 70.0827 133.337 69.54C133.792 68.9827 134.364 68.5427 135.053 68.22C135.742 67.8973 136.556 67.736 137.495 67.736C138.478 67.736 139.314 67.8973 140.003 68.22C140.692 68.5427 141.25 68.968 141.675 69.496C142.115 70.024 142.438 70.6107 142.643 71.256C142.848 71.8867 142.951 72.5173 142.951 73.148C142.951 73.3533 142.944 73.544 142.929 73.72C142.929 73.8813 142.922 74.0207 142.907 74.138H133.799V72.18H139.915C139.871 71.564 139.636 71.0433 139.211 70.618C138.8 70.1927 138.228 69.98 137.495 69.98C137.084 69.98 136.718 70.0533 136.395 70.2C136.072 70.3467 135.801 70.5667 135.581 70.86C135.361 71.1533 135.192 71.5127 135.075 71.938C134.958 72.3487 134.899 72.8327 134.899 73.39C134.899 74.05 135.009 74.6293 135.229 75.128C135.449 75.612 135.764 75.9933 136.175 76.272C136.6 76.536 137.114 76.668 137.715 76.668C138.331 76.668 138.837 76.5507 139.233 76.316C139.629 76.0667 139.886 75.7073 140.003 75.238H142.995C142.848 76.0447 142.526 76.7413 142.027 77.328C141.543 77.9147 140.927 78.3693 140.179 78.692C139.446 79.0147 138.624 79.176 137.715 79.176ZM150.01 79C148.734 79 147.707 78.6553 146.93 77.966C146.167 77.262 145.786 76.2647 145.786 74.974V70.464H143.674V67.912H145.786V64.634H148.866V67.912H151.836V70.464H148.866V74.842C148.866 75.37 148.998 75.7733 149.262 76.052C149.54 76.316 149.922 76.448 150.406 76.448H151.836V79H150.01ZM158.512 79.176C157.573 79.176 156.744 79.0147 156.026 78.692C155.307 78.3547 154.706 77.9073 154.222 77.35C153.752 76.7927 153.4 76.1767 153.166 75.502C152.931 74.8273 152.814 74.138 152.814 73.434C152.814 72.73 152.916 72.0407 153.122 71.366C153.342 70.6913 153.679 70.0827 154.134 69.54C154.588 68.9827 155.16 68.5427 155.85 68.22C156.539 67.8973 157.353 67.736 158.292 67.736C159.274 67.736 160.11 67.8973 160.8 68.22C161.489 68.5427 162.046 68.968 162.472 69.496C162.912 70.024 163.234 70.6107 163.44 71.256C163.645 71.8867 163.748 72.5173 163.748 73.148C163.748 73.3533 163.74 73.544 163.726 73.72C163.726 73.8813 163.718 74.0207 163.704 74.138H154.596V72.18H160.712C160.668 71.564 160.433 71.0433 160.008 70.618C159.597 70.1927 159.025 69.98 158.292 69.98C157.881 69.98 157.514 70.0533 157.192 70.2C156.869 70.3467 156.598 70.5667 156.378 70.86C156.158 71.1533 155.989 71.5127 155.872 71.938C155.754 72.3487 155.696 72.8327 155.696 73.39C155.696 74.05 155.806 74.6293 156.026 75.128C156.246 75.612 156.561 75.9933 156.972 76.272C157.397 76.536 157.91 76.668 158.512 76.668C159.128 76.668 159.634 76.5507 160.03 76.316C160.426 76.0667 160.682 75.7073 160.8 75.238H163.792C163.645 76.0447 163.322 76.7413 162.824 77.328C162.34 77.9147 161.724 78.3693 160.976 78.692C160.242 79.0147 159.421 79.176 158.512 79.176ZM170.163 79.176C169.151 79.176 168.271 78.9413 167.523 78.472C166.775 77.988 166.188 77.3207 165.763 76.47C165.352 75.6047 165.147 74.6 165.147 73.456C165.147 72.6053 165.264 71.828 165.499 71.124C165.734 70.42 166.071 69.8187 166.511 69.32C166.951 68.8067 167.479 68.418 168.095 68.154C168.726 67.8753 169.437 67.736 170.229 67.736C170.874 67.736 171.476 67.8607 172.033 68.11C172.605 68.3447 173.067 68.6673 173.419 69.078V63.094H176.477V79H173.419V77.79C173.082 78.2153 172.627 78.5527 172.055 78.802C171.483 79.0513 170.852 79.176 170.163 79.176ZM170.867 76.558C171.278 76.558 171.644 76.4847 171.967 76.338C172.304 76.1767 172.59 75.964 172.825 75.7C173.074 75.4213 173.258 75.0987 173.375 74.732C173.507 74.3507 173.573 73.9253 173.573 73.456C173.573 72.5173 173.324 71.7693 172.825 71.212C172.341 70.64 171.688 70.354 170.867 70.354C170.456 70.354 170.09 70.4273 169.767 70.574C169.444 70.7207 169.158 70.9333 168.909 71.212C168.674 71.4907 168.491 71.8207 168.359 72.202C168.227 72.5687 168.161 72.9867 168.161 73.456C168.161 74.38 168.41 75.128 168.909 75.7C169.408 76.272 170.06 76.558 170.867 76.558Z" fill="#0A0A0A"/>
<path opacity="0.7" d="M28.017 104.104C27.2977 104.104 26.6823 103.978 26.171 103.727C25.6683 103.467 25.2783 103.107 25.001 102.648C24.7237 102.18 24.5677 101.638 24.533 101.023H25.625C25.6857 101.656 25.9067 102.163 26.288 102.544C26.6693 102.917 27.2457 103.103 28.017 103.103C28.4417 103.103 28.8143 103.051 29.135 102.947C29.4557 102.834 29.707 102.661 29.889 102.427C30.071 102.193 30.162 101.89 30.162 101.517C30.162 101.17 30.0667 100.893 29.876 100.685C29.6853 100.477 29.4297 100.312 29.109 100.191C28.797 100.061 28.4503 99.9527 28.069 99.866C27.6963 99.7707 27.315 99.6667 26.925 99.554C26.5437 99.4413 26.197 99.2983 25.885 99.125C25.573 98.943 25.3173 98.7003 25.118 98.397C24.9273 98.085 24.832 97.6907 24.832 97.214C24.832 96.7287 24.962 96.3083 25.222 95.953C25.4907 95.589 25.8547 95.3073 26.314 95.108C26.782 94.9 27.3193 94.796 27.926 94.796C28.5327 94.796 29.07 94.9087 29.538 95.134C30.006 95.3507 30.3787 95.6627 30.656 96.07C30.9333 96.4687 31.0937 96.941 31.137 97.487H30.045C29.993 96.9757 29.7763 96.5683 29.395 96.265C29.0223 95.953 28.5327 95.797 27.926 95.797C27.5187 95.797 27.1677 95.8533 26.873 95.966C26.5783 96.0787 26.353 96.2433 26.197 96.46C26.041 96.6767 25.963 96.928 25.963 97.214C25.963 97.5693 26.0583 97.8467 26.249 98.046C26.4483 98.2453 26.704 98.4057 27.016 98.527C27.3367 98.6397 27.6877 98.7393 28.069 98.826C28.459 98.9127 28.8403 99.008 29.213 99.112C29.5943 99.216 29.9453 99.3633 30.266 99.554C30.5867 99.736 30.8423 99.983 31.033 100.295C31.2237 100.598 31.319 101.006 31.319 101.517C31.319 102.063 31.176 102.531 30.89 102.921C30.604 103.302 30.214 103.597 29.72 103.805C29.226 104.004 28.6583 104.104 28.017 104.104ZM34.771 104.104C34.3203 104.104 33.9217 104.022 33.575 103.857C33.237 103.692 32.9727 103.463 32.782 103.168C32.6 102.865 32.509 102.518 32.509 102.128C32.509 101.703 32.613 101.335 32.821 101.023C33.0377 100.711 33.341 100.473 33.731 100.308C34.121 100.135 34.5803 100.048 35.109 100.048H36.63C36.7687 100.048 36.8683 100.022 36.929 99.97C36.9897 99.918 37.02 99.84 37.02 99.736C37.02 99.294 36.864 98.9343 36.552 98.657C36.2487 98.371 35.8197 98.228 35.265 98.228C34.9443 98.228 34.654 98.2887 34.394 98.41C34.134 98.5313 33.9217 98.6917 33.757 98.891C33.601 99.0903 33.5143 99.3113 33.497 99.554H32.496C32.5393 99.1207 32.6867 98.7393 32.938 98.41C33.198 98.0807 33.5317 97.8207 33.939 97.63C34.3463 97.4393 34.7927 97.344 35.278 97.344C35.85 97.344 36.3397 97.448 36.747 97.656C37.163 97.8553 37.4837 98.137 37.709 98.501C37.943 98.865 38.06 99.2897 38.06 99.775V104H37.02V102.869C36.8987 103.112 36.7253 103.328 36.5 103.519C36.2833 103.701 36.0277 103.844 35.733 103.948C35.4383 104.052 35.1177 104.104 34.771 104.104ZM34.927 103.22C35.5857 103.22 36.097 103.029 36.461 102.648C36.8337 102.258 37.02 101.725 37.02 101.049V100.906H35.174C34.6973 100.906 34.3117 101.014 34.017 101.231C33.7223 101.439 33.575 101.734 33.575 102.115C33.575 102.444 33.6963 102.713 33.939 102.921C34.1903 103.12 34.5197 103.22 34.927 103.22ZM39.9431 104V97.448H40.9831V98.774C41.1304 98.3233 41.3427 97.9897 41.6201 97.773C41.9061 97.5563 42.2874 97.448 42.7641 97.448H43.5961V98.371H42.6991C42.2571 98.371 41.9104 98.4923 41.6591 98.735C41.4164 98.9777 41.2431 99.307 41.1391 99.723C41.0351 100.13 40.9831 100.594 40.9831 101.114V104H39.9431ZM46.4253 104.104C45.9746 104.104 45.576 104.022 45.2293 103.857C44.8913 103.692 44.627 103.463 44.4363 103.168C44.2543 102.865 44.1633 102.518 44.1633 102.128C44.1633 101.703 44.2673 101.335 44.4753 101.023C44.692 100.711 44.9953 100.473 45.3853 100.308C45.7753 100.135 46.2346 100.048 46.7633 100.048H48.2843C48.423 100.048 48.5226 100.022 48.5833 99.97C48.644 99.918 48.6743 99.84 48.6743 99.736C48.6743 99.294 48.5183 98.9343 48.2063 98.657C47.903 98.371 47.474 98.228 46.9193 98.228C46.5986 98.228 46.3083 98.2887 46.0483 98.41C45.7883 98.5313 45.576 98.6917 45.4113 98.891C45.2553 99.0903 45.1686 99.3113 45.1513 99.554H44.1503C44.1936 99.1207 44.341 98.7393 44.5923 98.41C44.8523 98.0807 45.186 97.8207 45.5933 97.63C46.0006 97.4393 46.447 97.344 46.9323 97.344C47.5043 97.344 47.994 97.448 48.4013 97.656C48.8173 97.8553 49.138 98.137 49.3633 98.501C49.5973 98.865 49.7143 99.2897 49.7143 99.775V104H48.6743V102.869C48.553 103.112 48.3796 103.328 48.1543 103.519C47.9376 103.701 47.682 103.844 47.3873 103.948C47.0926 104.052 46.772 104.104 46.4253 104.104ZM46.5813 103.22C47.24 103.22 47.7513 103.029 48.1153 102.648C48.488 102.258 48.6743 101.725 48.6743 101.049V100.906H46.8283C46.3516 100.906 45.966 101.014 45.6713 101.231C45.3766 101.439 45.2293 101.734 45.2293 102.115C45.2293 102.444 45.3506 102.713 45.5933 102.921C45.8446 103.12 46.174 103.22 46.5813 103.22ZM51.5974 104V94.757H52.6374V98.709C52.8194 98.2583 53.101 97.9203 53.4824 97.695C53.8637 97.461 54.3057 97.344 54.8084 97.344C55.3024 97.344 55.7314 97.4567 56.0954 97.682C56.468 97.8987 56.754 98.2063 56.9534 98.605C57.1527 98.995 57.2524 99.4587 57.2524 99.996V104H56.1994V100.165C56.1994 99.6017 56.052 99.151 55.7574 98.813C55.4627 98.4663 55.0684 98.293 54.5744 98.293C54.193 98.293 53.855 98.3883 53.5604 98.579C53.2744 98.761 53.049 99.0167 52.8844 99.346C52.7197 99.6667 52.6374 100.039 52.6374 100.464V104H51.5974ZM66.2654 104.104C65.6934 104.104 65.1431 104.009 64.6144 103.818C64.0944 103.627 63.6264 103.341 63.2104 102.96C62.7944 102.57 62.4651 102.085 62.2224 101.504C61.9884 100.915 61.8714 100.23 61.8714 99.45C61.8714 98.826 61.9494 98.267 62.1054 97.773C62.2614 97.2703 62.4781 96.8327 62.7554 96.46C63.0328 96.0873 63.3578 95.7797 63.7304 95.537C64.1031 95.2857 64.5018 95.0993 64.9264 94.978C65.3598 94.8567 65.8061 94.796 66.2654 94.796C66.9241 94.796 67.5264 94.926 68.0724 95.186C68.6271 95.4373 69.0821 95.784 69.4374 96.226C69.8014 96.668 70.0224 97.1707 70.1004 97.734H68.9434C68.8914 97.3613 68.7354 97.032 68.4754 96.746C68.2241 96.4513 67.9034 96.2217 67.5134 96.057C67.1321 95.8837 66.7118 95.797 66.2524 95.797C65.8798 95.797 65.5244 95.849 65.1864 95.953C64.8571 96.057 64.5581 96.2087 64.2894 96.408C64.0294 96.6073 63.8041 96.8543 63.6134 97.149C63.4228 97.4437 63.2754 97.786 63.1714 98.176C63.0674 98.5573 63.0154 98.982 63.0154 99.45C63.0154 100.239 63.1541 100.906 63.4314 101.452C63.7088 101.998 64.0901 102.41 64.5754 102.687C65.0694 102.964 65.6284 103.103 66.2524 103.103C66.7291 103.103 67.1624 103.021 67.5524 102.856C67.9424 102.683 68.2588 102.453 68.5014 102.167C68.7528 101.872 68.9044 101.539 68.9564 101.166H70.1004C70.0311 101.729 69.8188 102.232 69.4634 102.674C69.1081 103.116 68.6531 103.467 68.0984 103.727C67.5524 103.978 66.9414 104.104 66.2654 104.104ZM71.6306 104V94.757H72.6706V98.709C72.8526 98.2583 73.1342 97.9203 73.5156 97.695C73.8969 97.461 74.3389 97.344 74.8416 97.344C75.3356 97.344 75.7646 97.4567 76.1286 97.682C76.5012 97.8987 76.7872 98.2063 76.9866 98.605C77.1859 98.995 77.2856 99.4587 77.2856 99.996V104H76.2326V100.165C76.2326 99.6017 76.0852 99.151 75.7906 98.813C75.4959 98.4663 75.1016 98.293 74.6076 98.293C74.2262 98.293 73.8882 98.3883 73.5936 98.579C73.3076 98.761 73.0822 99.0167 72.9176 99.346C72.7529 99.6667 72.6706 100.039 72.6706 100.464V104H71.6306ZM81.9536 104.104C81.4683 104.104 81.0263 104.017 80.6276 103.844C80.2289 103.662 79.8866 103.415 79.6006 103.103C79.3146 102.782 79.0936 102.414 78.9376 101.998C78.7816 101.582 78.7036 101.144 78.7036 100.685C78.7036 100.208 78.7729 99.7663 78.9116 99.359C79.0589 98.9517 79.2669 98.6007 79.5356 98.306C79.8129 98.0027 80.1423 97.7687 80.5236 97.604C80.9136 97.4307 81.3513 97.344 81.8366 97.344C82.3133 97.344 82.7379 97.422 83.1106 97.578C83.4919 97.734 83.8126 97.9507 84.0726 98.228C84.3413 98.5053 84.5449 98.8303 84.6836 99.203C84.8223 99.5757 84.8916 99.9787 84.8916 100.412C84.8916 100.49 84.8873 100.568 84.8786 100.646C84.8786 100.724 84.8743 100.802 84.8656 100.88H79.3146V100.022H83.8126C83.7779 99.4673 83.5829 99.0297 83.2276 98.709C82.8809 98.3883 82.4173 98.228 81.8366 98.228C81.5159 98.228 81.2256 98.2843 80.9656 98.397C80.7056 98.501 80.4846 98.6613 80.3026 98.878C80.1206 99.086 79.9819 99.3417 79.8866 99.645C79.7913 99.9397 79.7436 100.282 79.7436 100.672C79.7436 101.157 79.8389 101.591 80.0296 101.972C80.2203 102.345 80.4803 102.639 80.8096 102.856C81.1476 103.073 81.5289 103.181 81.9536 103.181C82.4823 103.181 82.9113 103.073 83.2406 102.856C83.5699 102.631 83.7866 102.31 83.8906 101.894H84.9566C84.8873 102.336 84.7139 102.726 84.4366 103.064C84.1679 103.393 83.8213 103.649 83.3966 103.831C82.9806 104.013 82.4996 104.104 81.9536 104.104ZM86.4587 104V97.448H87.4987V98.709C87.6807 98.2583 87.9624 97.9203 88.3437 97.695C88.725 97.461 89.167 97.344 89.6697 97.344C90.1637 97.344 90.5927 97.4567 90.9567 97.682C91.3294 97.8987 91.6154 98.2063 91.8147 98.605C92.014 98.995 92.1137 99.4587 92.1137 99.996V104H91.0607V100.165C91.0607 99.6017 90.9134 99.151 90.6187 98.813C90.324 98.4663 89.9297 98.293 89.4357 98.293C89.0544 98.293 88.7164 98.3883 88.4217 98.579C88.1357 98.761 87.9104 99.0167 87.7457 99.346C87.581 99.6667 87.4987 100.039 87.4987 100.464V104H86.4587ZM93.2717 104.845C93.4624 104.845 93.6141 104.78 93.7267 104.65C93.8394 104.529 93.8957 104.368 93.8957 104.169V102.791H94.9617V104.208C94.9617 104.511 94.8967 104.776 94.7667 105.001C94.6454 105.235 94.4764 105.417 94.2597 105.547C94.0517 105.677 93.8004 105.742 93.5057 105.742H93.0897V104.845H93.2717ZM102.441 104L98.9958 94.9H100.14L103 102.713L105.886 94.9H107.017L103.572 104H102.441ZM108.323 104V94.9H111.755C112.361 94.9 112.881 95.0127 113.315 95.238C113.748 95.4633 114.082 95.7797 114.316 96.187C114.55 96.5857 114.667 97.0537 114.667 97.591C114.667 97.9897 114.602 98.3537 114.472 98.683C114.342 99.0123 114.151 99.2983 113.9 99.541C113.648 99.775 113.341 99.957 112.977 100.087C112.621 100.217 112.214 100.282 111.755 100.282H109.441V104H108.323ZM109.441 99.294H111.742C112.175 99.294 112.522 99.216 112.782 99.06C113.042 98.8953 113.228 98.683 113.341 98.423C113.453 98.163 113.51 97.8857 113.51 97.591C113.51 97.2963 113.453 97.019 113.341 96.759C113.228 96.499 113.042 96.291 112.782 96.135C112.522 95.9703 112.175 95.888 111.742 95.888H109.441V99.294ZM122.127 104.104C121.408 104.104 120.793 103.978 120.281 103.727C119.779 103.467 119.389 103.107 119.111 102.648C118.834 102.18 118.678 101.638 118.643 101.023H119.735C119.796 101.656 120.017 102.163 120.398 102.544C120.78 102.917 121.356 103.103 122.127 103.103C122.552 103.103 122.925 103.051 123.245 102.947C123.566 102.834 123.817 102.661 123.999 102.427C124.181 102.193 124.272 101.89 124.272 101.517C124.272 101.17 124.177 100.893 123.986 100.685C123.796 100.477 123.54 100.312 123.219 100.191C122.907 100.061 122.561 99.9527 122.179 99.866C121.807 99.7707 121.425 99.6667 121.035 99.554C120.654 99.4413 120.307 99.2983 119.995 99.125C119.683 98.943 119.428 98.7003 119.228 98.397C119.038 98.085 118.942 97.6907 118.942 97.214C118.942 96.7287 119.072 96.3083 119.332 95.953C119.601 95.589 119.965 95.3073 120.424 95.108C120.892 94.9 121.43 94.796 122.036 94.796C122.643 94.796 123.18 94.9087 123.648 95.134C124.116 95.3507 124.489 95.6627 124.766 96.07C125.044 96.4687 125.204 96.941 125.247 97.487H124.155C124.103 96.9757 123.887 96.5683 123.505 96.265C123.133 95.953 122.643 95.797 122.036 95.797C121.629 95.797 121.278 95.8533 120.983 95.966C120.689 96.0787 120.463 96.2433 120.307 96.46C120.151 96.6767 120.073 96.928 120.073 97.214C120.073 97.5693 120.169 97.8467 120.359 98.046C120.559 98.2453 120.814 98.4057 121.126 98.527C121.447 98.6397 121.798 98.7393 122.179 98.826C122.569 98.9127 122.951 99.008 123.323 99.112C123.705 99.216 124.056 99.3633 124.376 99.554C124.697 99.736 124.953 99.983 125.143 100.295C125.334 100.598 125.429 101.006 125.429 101.517C125.429 102.063 125.286 102.531 125 102.921C124.714 103.302 124.324 103.597 123.83 103.805C123.336 104.004 122.769 104.104 122.127 104.104ZM128.881 104.104C128.431 104.104 128.032 104.022 127.685 103.857C127.347 103.692 127.083 103.463 126.892 103.168C126.71 102.865 126.619 102.518 126.619 102.128C126.619 101.703 126.723 101.335 126.931 101.023C127.148 100.711 127.451 100.473 127.841 100.308C128.231 100.135 128.691 100.048 129.219 100.048H130.74C130.879 100.048 130.979 100.022 131.039 99.97C131.1 99.918 131.13 99.84 131.13 99.736C131.13 99.294 130.974 98.9343 130.662 98.657C130.359 98.371 129.93 98.228 129.375 98.228C129.055 98.228 128.764 98.2887 128.504 98.41C128.244 98.5313 128.032 98.6917 127.867 98.891C127.711 99.0903 127.625 99.3113 127.607 99.554H126.606C126.65 99.1207 126.797 98.7393 127.048 98.41C127.308 98.0807 127.642 97.8207 128.049 97.63C128.457 97.4393 128.903 97.344 129.388 97.344C129.96 97.344 130.45 97.448 130.857 97.656C131.273 97.8553 131.594 98.137 131.819 98.501C132.053 98.865 132.17 99.2897 132.17 99.775V104H131.13V102.869C131.009 103.112 130.836 103.328 130.61 103.519C130.394 103.701 130.138 103.844 129.843 103.948C129.549 104.052 129.228 104.104 128.881 104.104ZM129.037 103.22C129.696 103.22 130.207 103.029 130.571 102.648C130.944 102.258 131.13 101.725 131.13 101.049V100.906H129.284C128.808 100.906 128.422 101.014 128.127 101.231C127.833 101.439 127.685 101.734 127.685 102.115C127.685 102.444 127.807 102.713 128.049 102.921C128.301 103.12 128.63 103.22 129.037 103.22ZM134.053 104V94.757H135.093V104H134.053ZM139.87 104.104C139.384 104.104 138.942 104.017 138.544 103.844C138.145 103.662 137.803 103.415 137.517 103.103C137.231 102.782 137.01 102.414 136.854 101.998C136.698 101.582 136.62 101.144 136.62 100.685C136.62 100.208 136.689 99.7663 136.828 99.359C136.975 98.9517 137.183 98.6007 137.452 98.306C137.729 98.0027 138.058 97.7687 138.44 97.604C138.83 97.4307 139.267 97.344 139.753 97.344C140.229 97.344 140.654 97.422 141.027 97.578C141.408 97.734 141.729 97.9507 141.989 98.228C142.257 98.5053 142.461 98.8303 142.6 99.203C142.738 99.5757 142.808 99.9787 142.808 100.412C142.808 100.49 142.803 100.568 142.795 100.646C142.795 100.724 142.79 100.802 142.782 100.88H137.231V100.022H141.729C141.694 99.4673 141.499 99.0297 141.144 98.709C140.797 98.3883 140.333 98.228 139.753 98.228C139.432 98.228 139.142 98.2843 138.882 98.397C138.622 98.501 138.401 98.6613 138.219 98.878C138.037 99.086 137.898 99.3417 137.803 99.645C137.707 99.9397 137.66 100.282 137.66 100.672C137.66 101.157 137.755 101.591 137.946 101.972C138.136 102.345 138.396 102.639 138.726 102.856C139.064 103.073 139.445 103.181 139.87 103.181C140.398 103.181 140.827 103.073 141.157 102.856C141.486 102.631 141.703 102.31 141.807 101.894H142.873C142.803 102.336 142.63 102.726 142.353 103.064C142.084 103.393 141.737 103.649 141.313 103.831C140.897 104.013 140.416 104.104 139.87 104.104ZM146.455 104.104C145.943 104.104 145.501 104.017 145.129 103.844C144.756 103.671 144.461 103.419 144.245 103.09C144.037 102.761 143.915 102.366 143.881 101.907H144.856C144.899 102.314 145.059 102.635 145.337 102.869C145.614 103.094 145.987 103.207 146.455 103.207C146.732 103.207 146.979 103.164 147.196 103.077C147.412 102.99 147.577 102.865 147.69 102.7C147.802 102.535 147.859 102.345 147.859 102.128C147.859 101.877 147.789 101.686 147.651 101.556C147.512 101.426 147.33 101.326 147.105 101.257C146.879 101.188 146.632 101.136 146.364 101.101C146.095 101.058 145.822 101.006 145.545 100.945C145.267 100.884 145.016 100.793 144.791 100.672C144.565 100.551 144.383 100.382 144.245 100.165C144.106 99.9397 144.037 99.645 144.037 99.281C144.037 98.891 144.136 98.553 144.336 98.267C144.535 97.981 144.808 97.7557 145.155 97.591C145.501 97.4263 145.9 97.344 146.351 97.344C146.853 97.344 147.282 97.422 147.638 97.578C147.993 97.734 148.275 97.9637 148.483 98.267C148.691 98.5703 148.812 98.93 148.847 99.346H147.859C147.833 99.112 147.755 98.9127 147.625 98.748C147.495 98.5833 147.321 98.4533 147.105 98.358C146.888 98.2627 146.641 98.215 146.364 98.215C146.017 98.215 145.709 98.3017 145.441 98.475C145.181 98.6483 145.051 98.8953 145.051 99.216C145.051 99.4587 145.12 99.6407 145.259 99.762C145.397 99.8833 145.579 99.9743 145.805 100.035C146.03 100.096 146.281 100.148 146.559 100.191C146.836 100.226 147.109 100.273 147.378 100.334C147.655 100.395 147.906 100.49 148.132 100.62C148.357 100.741 148.539 100.919 148.678 101.153C148.816 101.387 148.886 101.699 148.886 102.089C148.886 102.401 148.829 102.678 148.717 102.921C148.613 103.164 148.457 103.376 148.249 103.558C148.041 103.731 147.785 103.866 147.482 103.961C147.187 104.056 146.845 104.104 146.455 104.104Z" fill="#0A0A0A" fill-opacity="0.8"/>
<path opacity="0.7" d="M24.156 121L27.783 111.9H28.797L32.411 121H31.254L28.29 113.265L25.313 121H24.156ZM25.937 118.543L26.171 117.555H30.396L30.63 118.543H25.937ZM36.0715 121.104C35.3868 121.104 34.8062 120.944 34.3295 120.623C33.8528 120.302 33.4932 119.886 33.2505 119.375C33.0078 118.864 32.8865 118.313 32.8865 117.724C32.8865 117.282 32.9515 116.862 33.0815 116.463C33.2202 116.056 33.4238 115.692 33.6925 115.371C33.9698 115.05 34.3035 114.799 34.6935 114.617C35.0922 114.435 35.5515 114.344 36.0715 114.344C36.5655 114.344 37.0248 114.435 37.4495 114.617C37.8828 114.799 38.2425 115.063 38.5285 115.41C38.8145 115.757 38.9878 116.173 39.0485 116.658H38.0215C37.9782 116.398 37.8612 116.164 37.6705 115.956C37.4885 115.748 37.2588 115.583 36.9815 115.462C36.7128 115.341 36.4138 115.28 36.0845 115.28C35.6078 115.28 35.2092 115.393 34.8885 115.618C34.5765 115.835 34.3425 116.129 34.1865 116.502C34.0392 116.866 33.9655 117.273 33.9655 117.724C33.9655 118.166 34.0435 118.573 34.1995 118.946C34.3555 119.319 34.5895 119.618 34.9015 119.843C35.2222 120.06 35.6165 120.168 36.0845 120.168C36.5785 120.168 36.9945 120.051 37.3325 119.817C37.6792 119.583 37.9088 119.271 38.0215 118.881H39.0355C38.9662 119.323 38.8015 119.713 38.5415 120.051C38.2815 120.38 37.9435 120.64 37.5275 120.831C37.1115 121.013 36.6262 121.104 36.0715 121.104ZM40.5271 121V114.448H41.5801V115.709C41.7014 115.302 41.9354 114.972 42.2821 114.721C42.6374 114.47 43.0664 114.344 43.5691 114.344C44.0891 114.344 44.5441 114.465 44.9341 114.708C45.3327 114.951 45.5927 115.297 45.7141 115.748C45.8007 115.479 45.9481 115.241 46.1561 115.033C46.3641 114.816 46.6154 114.647 46.9101 114.526C47.2047 114.405 47.5081 114.344 47.8201 114.344C48.2967 114.344 48.7041 114.448 49.0421 114.656C49.3801 114.855 49.6401 115.146 49.8221 115.527C50.0127 115.9 50.1081 116.35 50.1081 116.879V121H49.0551V117.152C49.0551 116.597 48.9251 116.147 48.6651 115.8C48.4051 115.453 48.0411 115.28 47.5731 115.28C47.2177 115.28 46.9057 115.384 46.6371 115.592C46.3771 115.8 46.1777 116.069 46.0391 116.398C45.9004 116.727 45.8311 117.078 45.8311 117.451V121H44.7911V117.152C44.7911 116.597 44.6611 116.147 44.4011 115.8C44.1411 115.453 43.7814 115.28 43.3221 115.28C42.9581 115.28 42.6461 115.384 42.3861 115.592C42.1261 115.8 41.9267 116.069 41.7881 116.398C41.6494 116.727 41.5801 117.078 41.5801 117.451V121H40.5271ZM54.7729 121.104C54.2876 121.104 53.8456 121.017 53.4469 120.844C53.0483 120.662 52.7059 120.415 52.4199 120.103C52.1339 119.782 51.9129 119.414 51.7569 118.998C51.6009 118.582 51.5229 118.144 51.5229 117.685C51.5229 117.208 51.5923 116.766 51.7309 116.359C51.8783 115.952 52.0863 115.601 52.3549 115.306C52.6323 115.003 52.9616 114.769 53.3429 114.604C53.7329 114.431 54.1706 114.344 54.6559 114.344C55.1326 114.344 55.5573 114.422 55.9299 114.578C56.3113 114.734 56.6319 114.951 56.8919 115.228C57.1606 115.505 57.3643 115.83 57.5029 116.203C57.6416 116.576 57.7109 116.979 57.7109 117.412C57.7109 117.49 57.7066 117.568 57.6979 117.646C57.6979 117.724 57.6936 117.802 57.6849 117.88H52.1339V117.022H56.6319C56.5973 116.467 56.4023 116.03 56.0469 115.709C55.7003 115.388 55.2366 115.228 54.6559 115.228C54.3353 115.228 54.0449 115.284 53.7849 115.397C53.5249 115.501 53.3039 115.661 53.1219 115.878C52.9399 116.086 52.8013 116.342 52.7059 116.645C52.6106 116.94 52.5629 117.282 52.5629 117.672C52.5629 118.157 52.6583 118.591 52.8489 118.972C53.0396 119.345 53.2996 119.639 53.6289 119.856C53.9669 120.073 54.3483 120.181 54.7729 120.181C55.3016 120.181 55.7306 120.073 56.0599 119.856C56.3893 119.631 56.6059 119.31 56.7099 118.894H57.7759C57.7066 119.336 57.5333 119.726 57.2559 120.064C56.9873 120.393 56.6406 120.649 56.2159 120.831C55.7999 121.013 55.3189 121.104 54.7729 121.104ZM66.4051 121.104C65.8331 121.104 65.2828 121.009 64.7541 120.818C64.2341 120.627 63.7661 120.341 63.3501 119.96C62.9341 119.57 62.6048 119.085 62.3621 118.504C62.1281 117.915 62.0111 117.23 62.0111 116.45C62.0111 115.826 62.0891 115.267 62.2451 114.773C62.4011 114.27 62.6178 113.833 62.8951 113.46C63.1724 113.087 63.4974 112.78 63.8701 112.537C64.2428 112.286 64.6414 112.099 65.0661 111.978C65.4994 111.857 65.9458 111.796 66.4051 111.796C67.0638 111.796 67.6661 111.926 68.2121 112.186C68.7668 112.437 69.2218 112.784 69.5771 113.226C69.9411 113.668 70.1621 114.171 70.2401 114.734H69.0831C69.0311 114.361 68.8751 114.032 68.6151 113.746C68.3638 113.451 68.0431 113.222 67.6531 113.057C67.2718 112.884 66.8514 112.797 66.3921 112.797C66.0194 112.797 65.6641 112.849 65.3261 112.953C64.9968 113.057 64.6978 113.209 64.4291 113.408C64.1691 113.607 63.9438 113.854 63.7531 114.149C63.5624 114.444 63.4151 114.786 63.3111 115.176C63.2071 115.557 63.1551 115.982 63.1551 116.45C63.1551 117.239 63.2938 117.906 63.5711 118.452C63.8484 118.998 64.2298 119.41 64.7151 119.687C65.2091 119.964 65.7681 120.103 66.3921 120.103C66.8688 120.103 67.3021 120.021 67.6921 119.856C68.0821 119.683 68.3984 119.453 68.6411 119.167C68.8924 118.872 69.0441 118.539 69.0961 118.166H70.2401C70.1708 118.729 69.9584 119.232 69.6031 119.674C69.2478 120.116 68.7928 120.467 68.2381 120.727C67.6921 120.978 67.0811 121.104 66.4051 121.104ZM74.6305 121.104C73.9892 121.104 73.4129 120.961 72.9015 120.675C72.3989 120.38 72.0045 119.982 71.7185 119.479C71.4412 118.968 71.3025 118.383 71.3025 117.724C71.3025 117.065 71.4412 116.485 71.7185 115.982C72.0045 115.471 72.3989 115.072 72.9015 114.786C73.4129 114.491 73.9892 114.344 74.6305 114.344C75.2805 114.344 75.8569 114.491 76.3595 114.786C76.8622 115.072 77.2565 115.471 77.5425 115.982C77.8285 116.485 77.9715 117.065 77.9715 117.724C77.9715 118.383 77.8285 118.968 77.5425 119.479C77.2565 119.982 76.8622 120.38 76.3595 120.675C75.8569 120.961 75.2805 121.104 74.6305 121.104ZM74.6305 120.168C75.0812 120.168 75.4755 120.064 75.8135 119.856C76.1602 119.648 76.4245 119.362 76.6065 118.998C76.7972 118.625 76.8925 118.201 76.8925 117.724C76.8925 117.247 76.7972 116.827 76.6065 116.463C76.4245 116.09 76.1602 115.8 75.8135 115.592C75.4755 115.384 75.0812 115.28 74.6305 115.28C74.1885 115.28 73.7942 115.384 73.4475 115.592C73.1095 115.8 72.8452 116.09 72.6545 116.463C72.4639 116.827 72.3685 117.247 72.3685 117.724C72.3685 118.201 72.4639 118.625 72.6545 118.998C72.8452 119.362 73.1095 119.648 73.4475 119.856C73.7855 120.064 74.1799 120.168 74.6305 120.168ZM79.489 121V114.448H80.529V115.774C80.6763 115.323 80.8886 114.99 81.166 114.773C81.452 114.556 81.8333 114.448 82.31 114.448H83.142V115.371H82.245C81.803 115.371 81.4563 115.492 81.205 115.735C80.9623 115.978 80.789 116.307 80.685 116.723C80.581 117.13 80.529 117.594 80.529 118.114V121H79.489ZM84.3132 123.652V114.448H85.3532V115.514C85.5612 115.167 85.8645 114.886 86.2632 114.669C86.6619 114.452 87.0909 114.344 87.5502 114.344C88.2262 114.344 88.7982 114.496 89.2662 114.799C89.7342 115.094 90.0895 115.497 90.3322 116.008C90.5749 116.519 90.6962 117.091 90.6962 117.724C90.6962 118.201 90.6269 118.643 90.4882 119.05C90.3495 119.457 90.1459 119.817 89.8772 120.129C89.6172 120.441 89.2922 120.684 88.9022 120.857C88.5122 121.022 88.0615 121.104 87.5502 121.104C87.2469 121.104 86.9522 121.056 86.6662 120.961C86.3802 120.857 86.1245 120.718 85.8992 120.545C85.6739 120.372 85.4919 120.164 85.3532 119.921V123.652H84.3132ZM87.4332 120.168C87.7625 120.168 88.0615 120.112 88.3302 119.999C88.5989 119.878 88.8285 119.713 89.0192 119.505C89.2099 119.288 89.3572 119.033 89.4612 118.738C89.5652 118.435 89.6172 118.097 89.6172 117.724C89.6172 116.979 89.4179 116.385 89.0192 115.943C88.6292 115.501 88.1005 115.28 87.4332 115.28C87.1125 115.28 86.8179 115.341 86.5492 115.462C86.2805 115.575 86.0509 115.739 85.8602 115.956C85.6695 116.164 85.5222 116.42 85.4182 116.723C85.3142 117.018 85.2622 117.351 85.2622 117.724C85.2622 118.461 85.4615 119.054 85.8602 119.505C86.2589 119.947 86.7832 120.168 87.4332 120.168Z" fill="#0A0A0A" fill-opacity="0.8"/>
<path d="M26.763 157.09H26.718C25.467 157.09 24.612 156.514 24.612 155.119H25.278C25.278 156.154 25.773 156.478 26.718 156.478H26.763C27.654 156.478 28.122 156.136 28.122 155.425C28.122 154.534 27.249 154.363 26.52 154.129C25.71 153.859 24.747 153.508 24.747 152.347C24.756 151.348 25.503 150.772 26.592 150.772H26.637C27.789 150.772 28.635 151.339 28.635 152.734H27.978C27.978 151.699 27.465 151.384 26.637 151.384H26.592C25.8 151.384 25.422 151.726 25.422 152.347C25.422 153.157 26.169 153.346 26.844 153.562C27.681 153.823 28.788 154.147 28.788 155.425C28.788 156.505 27.969 157.09 26.763 157.09ZM34.1215 150.862V151.483H31.0435V153.607H33.4285V154.228H31.0435V156.379H34.1215V157H30.3775V150.862H34.1215ZM36.251 157H35.603V150.862H36.602L38.654 156.046H38.735V150.862H39.383V157H38.384L36.332 151.816H36.251V157ZM40.6665 150.862H45.1035V151.483H43.2225V157H42.5475V151.483H40.6665V150.862ZM50.1849 150.862V151.483H48.6189V156.379H50.1849V157H46.3869V156.379H47.9439V151.483H46.3869V150.862H50.1849ZM52.3144 157H51.6664V150.862H52.5574L53.6374 153.67H53.7184L54.8074 150.862H55.6984V157H55.0504V151.87H54.9784L53.8534 154.66H53.5024L52.3864 151.87H52.3144V157ZM61.1039 150.862V151.483H58.0259V153.607H60.4109V154.228H58.0259V156.379H61.1039V157H57.3599V150.862H61.1039ZM63.2334 157H62.5854V150.862H63.5844L65.6364 156.046H65.7174V150.862H66.3654V157H65.3664L63.3144 151.816H63.2334V157ZM67.6489 150.862H72.0859V151.483H70.2049V157H69.5299V151.483H67.6489V150.862Z" fill="#0A0A0A" fill-opacity="0.6"/>
<path d="M24.85 176V169H27.49C27.9567 169 28.3567 169.087 28.69 169.26C29.0233 169.433 29.28 169.677 29.46 169.99C29.64 170.297 29.73 170.657 29.73 171.07C29.73 171.377 29.68 171.657 29.58 171.91C29.48 172.163 29.3333 172.383 29.14 172.57C28.9467 172.75 28.71 172.89 28.43 172.99C28.1567 173.09 27.8433 173.14 27.49 173.14H25.71V176H24.85ZM25.71 172.38H27.48C27.8133 172.38 28.08 172.32 28.28 172.2C28.48 172.073 28.6233 171.91 28.71 171.71C28.7967 171.51 28.84 171.297 28.84 171.07C28.84 170.843 28.7967 170.63 28.71 170.43C28.6233 170.23 28.48 170.07 28.28 169.95C28.08 169.823 27.8133 169.76 27.48 169.76H25.71V172.38ZM32.7708 176.08C32.2774 176.08 31.8341 175.97 31.4408 175.75C31.0541 175.523 30.7508 175.217 30.5308 174.83C30.3174 174.437 30.2108 173.987 30.2108 173.48C30.2108 172.973 30.3174 172.527 30.5308 172.14C30.7508 171.747 31.0541 171.44 31.4408 171.22C31.8341 170.993 32.2774 170.88 32.7708 170.88C33.2708 170.88 33.7141 170.993 34.1008 171.22C34.4874 171.44 34.7908 171.747 35.0108 172.14C35.2308 172.527 35.3408 172.973 35.3408 173.48C35.3408 173.987 35.2308 174.437 35.0108 174.83C34.7908 175.217 34.4874 175.523 34.1008 175.75C33.7141 175.97 33.2708 176.08 32.7708 176.08ZM32.7708 175.36C33.1174 175.36 33.4208 175.28 33.6808 175.12C33.9474 174.96 34.1508 174.74 34.2908 174.46C34.4374 174.173 34.5108 173.847 34.5108 173.48C34.5108 173.113 34.4374 172.79 34.2908 172.51C34.1508 172.223 33.9474 172 33.6808 171.84C33.4208 171.68 33.1174 171.6 32.7708 171.6C32.4308 171.6 32.1274 171.68 31.8608 171.84C31.6008 172 31.3974 172.223 31.2508 172.51C31.1041 172.79 31.0308 173.113 31.0308 173.48C31.0308 173.847 31.1041 174.173 31.2508 174.46C31.3974 174.74 31.6008 174.96 31.8608 175.12C32.1208 175.28 32.4241 175.36 32.7708 175.36ZM38.108 176.08C37.7147 176.08 37.3747 176.013 37.088 175.88C36.8014 175.747 36.5747 175.553 36.408 175.3C36.248 175.047 36.1547 174.743 36.128 174.39H36.878C36.9114 174.703 37.0347 174.95 37.248 175.13C37.4614 175.303 37.748 175.39 38.108 175.39C38.3214 175.39 38.5114 175.357 38.678 175.29C38.8447 175.223 38.9714 175.127 39.058 175C39.1447 174.873 39.188 174.727 39.188 174.56C39.188 174.367 39.1347 174.22 39.028 174.12C38.9214 174.02 38.7814 173.943 38.608 173.89C38.4347 173.837 38.2447 173.797 38.038 173.77C37.8314 173.737 37.6214 173.697 37.408 173.65C37.1947 173.603 37.0014 173.533 36.828 173.44C36.6547 173.347 36.5147 173.217 36.408 173.05C36.3014 172.877 36.248 172.65 36.248 172.37C36.248 172.07 36.3247 171.81 36.478 171.59C36.6314 171.37 36.8414 171.197 37.108 171.07C37.3747 170.943 37.6814 170.88 38.028 170.88C38.4147 170.88 38.7447 170.94 39.018 171.06C39.2914 171.18 39.508 171.357 39.668 171.59C39.828 171.823 39.9214 172.1 39.948 172.42H39.188C39.168 172.24 39.108 172.087 39.008 171.96C38.908 171.833 38.7747 171.733 38.608 171.66C38.4414 171.587 38.2514 171.55 38.038 171.55C37.7714 171.55 37.5347 171.617 37.328 171.75C37.128 171.883 37.028 172.073 37.028 172.32C37.028 172.507 37.0814 172.647 37.188 172.74C37.2947 172.833 37.4347 172.903 37.608 172.95C37.7814 172.997 37.9747 173.037 38.188 173.07C38.4014 173.097 38.6114 173.133 38.818 173.18C39.0314 173.227 39.2247 173.3 39.398 173.4C39.5714 173.493 39.7114 173.63 39.818 173.81C39.9247 173.99 39.978 174.23 39.978 174.53C39.978 174.77 39.9347 174.983 39.848 175.17C39.768 175.357 39.648 175.52 39.488 175.66C39.328 175.793 39.1314 175.897 38.898 175.97C38.6714 176.043 38.408 176.08 38.108 176.08ZM41.1663 176V170.96H41.9663V176H41.1663ZM41.1063 168.89H42.0263V170.01H41.1063V168.89ZM45.4902 176C45.0102 176 44.6269 175.86 44.3402 175.58C44.0536 175.3 43.9102 174.913 43.9102 174.42V171.67H42.8602V170.96H43.9102V169.35H44.7102V170.96H46.2602V171.67H44.7102V174.4C44.7102 174.68 44.7836 174.9 44.9302 175.06C45.0769 175.213 45.2736 175.29 45.5202 175.29H46.2602V176H45.4902ZM47.2698 176V170.96H48.0698V176H47.2698ZM47.2098 168.89H48.1298V170.01H47.2098V168.89ZM50.8938 176L49.0438 170.96H49.8738L51.3138 175.01L52.7538 170.96H53.5738L51.7338 176H50.8938ZM56.5777 176.08C56.2044 176.08 55.8644 176.013 55.5577 175.88C55.2511 175.74 54.9877 175.55 54.7677 175.31C54.5477 175.063 54.3777 174.78 54.2577 174.46C54.1377 174.14 54.0777 173.803 54.0777 173.45C54.0777 173.083 54.1311 172.743 54.2377 172.43C54.3511 172.117 54.5111 171.847 54.7177 171.62C54.9311 171.387 55.1844 171.207 55.4777 171.08C55.7777 170.947 56.1144 170.88 56.4877 170.88C56.8544 170.88 57.1811 170.94 57.4677 171.06C57.7611 171.18 58.0077 171.347 58.2077 171.56C58.4144 171.773 58.5711 172.023 58.6777 172.31C58.7844 172.597 58.8377 172.907 58.8377 173.24C58.8377 173.3 58.8344 173.36 58.8277 173.42C58.8277 173.48 58.8244 173.54 58.8177 173.6H54.5477V172.94H58.0077C57.9811 172.513 57.8311 172.177 57.5577 171.93C57.2911 171.683 56.9344 171.56 56.4877 171.56C56.2411 171.56 56.0177 171.603 55.8177 171.69C55.6177 171.77 55.4477 171.893 55.3077 172.06C55.1677 172.22 55.0611 172.417 54.9877 172.65C54.9144 172.877 54.8777 173.14 54.8777 173.44C54.8777 173.813 54.9511 174.147 55.0977 174.44C55.2444 174.727 55.4444 174.953 55.6977 175.12C55.9577 175.287 56.2511 175.37 56.5777 175.37C56.9844 175.37 57.3144 175.287 57.5677 175.12C57.8211 174.947 57.9877 174.7 58.0677 174.38H58.8877C58.8344 174.72 58.7011 175.02 58.4877 175.28C58.2811 175.533 58.0144 175.73 57.6877 175.87C57.3677 176.01 56.9977 176.08 56.5777 176.08Z" fill="#0A0A0A" fill-opacity="0.7"/>
<path d="M152.85 176V169H153.83L157.43 174.7V169H158.29V176H157.31L153.71 170.32V176H152.85ZM161.97 176.08C161.597 176.08 161.257 176.013 160.95 175.88C160.644 175.74 160.38 175.55 160.16 175.31C159.94 175.063 159.77 174.78 159.65 174.46C159.53 174.14 159.47 173.803 159.47 173.45C159.47 173.083 159.524 172.743 159.63 172.43C159.744 172.117 159.904 171.847 160.11 171.62C160.324 171.387 160.577 171.207 160.87 171.08C161.17 170.947 161.507 170.88 161.88 170.88C162.247 170.88 162.574 170.94 162.86 171.06C163.154 171.18 163.4 171.347 163.6 171.56C163.807 171.773 163.964 172.023 164.07 172.31C164.177 172.597 164.23 172.907 164.23 173.24C164.23 173.3 164.227 173.36 164.22 173.42C164.22 173.48 164.217 173.54 164.21 173.6H159.94V172.94H163.4C163.374 172.513 163.224 172.177 162.95 171.93C162.684 171.683 162.327 171.56 161.88 171.56C161.634 171.56 161.41 171.603 161.21 171.69C161.01 171.77 160.84 171.893 160.7 172.06C160.56 172.22 160.454 172.417 160.38 172.65C160.307 172.877 160.27 173.14 160.27 173.44C160.27 173.813 160.344 174.147 160.49 174.44C160.637 174.727 160.837 174.953 161.09 175.12C161.35 175.287 161.644 175.37 161.97 175.37C162.377 175.37 162.707 175.287 162.96 175.12C163.214 174.947 163.38 174.7 163.46 174.38H164.28C164.227 174.72 164.094 175.02 163.88 175.28C163.674 175.533 163.407 175.73 163.08 175.87C162.76 176.01 162.39 176.08 161.97 176.08ZM167.246 176.08C166.872 176.08 166.542 175.997 166.256 175.83C165.976 175.657 165.759 175.417 165.606 175.11C165.452 174.803 165.376 174.447 165.376 174.04V170.96H166.176V173.91C166.176 174.337 166.289 174.683 166.516 174.95C166.749 175.217 167.056 175.35 167.436 175.35C167.722 175.35 167.976 175.28 168.196 175.14C168.422 174.993 168.599 174.793 168.726 174.54C168.852 174.287 168.916 174 168.916 173.68V170.96H169.716V176H168.916V175.03C168.782 175.377 168.569 175.64 168.276 175.82C167.982 175.993 167.639 176.08 167.246 176.08ZM173.227 176C172.747 176 172.363 175.86 172.077 175.58C171.79 175.3 171.647 174.913 171.647 174.42V171.67H170.597V170.96H171.647V169.35H172.447V170.96H173.997V171.67H172.447V174.4C172.447 174.68 172.52 174.9 172.667 175.06C172.813 175.213 173.01 175.29 173.257 175.29H173.997V176H173.227ZM175.006 176V170.96H175.806V171.98C175.919 171.633 176.083 171.377 176.296 171.21C176.516 171.043 176.809 170.96 177.176 170.96H177.816V171.67H177.126C176.786 171.67 176.519 171.763 176.326 171.95C176.139 172.137 176.006 172.39 175.926 172.71C175.846 173.023 175.806 173.38 175.806 173.78V176H175.006ZM179.992 176.08C179.646 176.08 179.339 176.017 179.072 175.89C178.812 175.763 178.609 175.587 178.462 175.36C178.322 175.127 178.252 174.86 178.252 174.56C178.252 174.233 178.332 173.95 178.492 173.71C178.659 173.47 178.892 173.287 179.192 173.16C179.492 173.027 179.846 172.96 180.252 172.96H181.422C181.529 172.96 181.606 172.94 181.652 172.9C181.699 172.86 181.722 172.8 181.722 172.72C181.722 172.38 181.602 172.103 181.362 171.89C181.129 171.67 180.799 171.56 180.372 171.56C180.126 171.56 179.902 171.607 179.702 171.7C179.502 171.793 179.339 171.917 179.212 172.07C179.092 172.223 179.026 172.393 179.012 172.58H178.242C178.276 172.247 178.389 171.953 178.582 171.7C178.782 171.447 179.039 171.247 179.352 171.1C179.666 170.953 180.009 170.88 180.382 170.88C180.822 170.88 181.199 170.96 181.512 171.12C181.832 171.273 182.079 171.49 182.252 171.77C182.432 172.05 182.522 172.377 182.522 172.75V176H181.722V175.13C181.629 175.317 181.496 175.483 181.322 175.63C181.156 175.77 180.959 175.88 180.732 175.96C180.506 176.04 180.259 176.08 179.992 176.08ZM180.112 175.4C180.619 175.4 181.012 175.253 181.292 174.96C181.579 174.66 181.722 174.25 181.722 173.73V173.62H180.302C179.936 173.62 179.639 173.703 179.412 173.87C179.186 174.03 179.072 174.257 179.072 174.55C179.072 174.803 179.166 175.01 179.352 175.17C179.546 175.323 179.799 175.4 180.112 175.4ZM183.971 176V168.89H184.771V176H183.971Z" fill="#0A0A0A" fill-opacity="0.7"/>
<path d="M148 184H25C24.4477 184 24 184.448 24 185V193C24 193.552 24.4477 194 25 194H148C148.552 194 149 193.552 149 193V185C149 184.448 148.552 184 148 184Z" fill="#0A0A0A" fill-opacity="0.35"/>
<path d="M199 184H153C152.448 184 152 184.448 152 185V193C152 193.552 152.448 194 153 194H199C199.552 194 200 193.552 200 193V185C200 184.448 199.552 184 199 184Z" fill="#0A0A0A" fill-opacity="0.2"/>
<path d="M28.896 218.862L27.006 221.409L29.049 225H28.32L26.628 222.021H26.547L25.566 223.344V225H24.9V218.862H25.566V222.219H25.647L28.131 218.862H28.896ZM34.1215 218.862V219.483H31.0435V221.607H33.4285V222.228H31.0435V224.379H34.1215V225H30.3775V218.862H34.1215ZM37.826 225H37.16V222.453L35.162 218.862H35.882L37.448 221.76H37.538L39.104 218.862H39.824L37.826 222.462V225ZM46.0629 218.862H50.4999V219.483H48.6189V225H47.9439V219.483H46.0629V218.862ZM53.7004 225.09H53.6644C52.4764 225.09 51.6484 224.442 51.6484 222.894V220.968C51.6484 219.42 52.4764 218.772 53.6644 218.772H53.7004C54.9064 218.772 55.7164 219.429 55.7164 220.968V222.894C55.7164 224.433 54.9064 225.09 53.7004 225.09ZM53.6644 224.478H53.7004C54.5824 224.478 55.0504 224.073 55.0504 222.894V220.95C55.0504 219.789 54.5824 219.384 53.7004 219.384H53.6644C52.7734 219.384 52.3144 219.789 52.3144 220.95V222.894C52.3144 224.073 52.7734 224.478 53.6644 224.478ZM57.2609 218.862H59.4299C60.5729 218.862 61.2749 219.411 61.2749 220.707V220.734C61.2749 222.03 60.5729 222.579 59.4299 222.579H57.9269V225H57.2609V218.862ZM60.6089 220.734V220.707C60.6089 219.771 60.2489 219.483 59.4299 219.483H57.9269V221.958H59.4299C60.2489 221.958 60.6089 221.67 60.6089 220.734ZM66.3744 218.862V219.483H64.8084V224.379H66.3744V225H62.5764V224.379H64.1334V219.483H62.5764V218.862H66.3744ZM69.8899 225.09H69.8539C68.6659 225.09 67.8379 224.442 67.8379 222.894V220.968C67.8379 219.42 68.6659 218.772 69.8539 218.772H69.8899C71.0959 218.772 71.9059 219.429 71.9059 220.959H71.2399C71.2399 219.789 70.7719 219.384 69.8899 219.384H69.8539C68.9629 219.384 68.5039 219.789 68.5039 220.95V222.894C68.5039 224.073 68.9629 224.478 69.8539 224.478H69.8899C70.7719 224.478 71.2399 224.073 71.2399 222.894H71.9059C71.9059 224.433 71.0959 225.09 69.8899 225.09ZM75.3314 225.09H75.2864C74.0354 225.09 73.1804 224.514 73.1804 223.119H73.8464C73.8464 224.154 74.3414 224.478 75.2864 224.478H75.3314C76.2224 224.478 76.6904 224.136 76.6904 223.425C76.6904 222.534 75.8174 222.363 75.0884 222.129C74.2784 221.859 73.3154 221.508 73.3154 220.347C73.3244 219.348 74.0714 218.772 75.1604 218.772H75.2054C76.3574 218.772 77.2034 219.339 77.2034 220.734H76.5464C76.5464 219.699 76.0334 219.384 75.2054 219.384H75.1604C74.3684 219.384 73.9904 219.726 73.9904 220.347C73.9904 221.157 74.7374 221.346 75.4124 221.562C76.2494 221.823 77.3564 222.147 77.3564 223.425C77.3564 224.505 76.5374 225.09 75.3314 225.09Z" fill="#0A0A0A" fill-opacity="0.6"/>
<path d="M74 234H26C24.8954 234 24 234.895 24 236V254C24 255.105 24.8954 256 26 256H74C75.1046 256 76 255.105 76 254V236C76 234.895 75.1046 234 74 234Z" fill="#0A0A0A" fill-opacity="0.1"/>
<path d="M33.5873 249V242H36.0973C36.5373 242 36.9173 242.07 37.2373 242.21C37.5573 242.35 37.8006 242.547 37.9673 242.8C38.1406 243.053 38.2273 243.353 38.2273 243.7C38.2273 244.08 38.1373 244.39 37.9573 244.63C37.784 244.87 37.564 245.05 37.2973 245.17C37.664 245.297 37.964 245.507 38.1973 245.8C38.4306 246.087 38.5473 246.477 38.5473 246.97C38.5473 247.383 38.454 247.743 38.2673 248.05C38.0873 248.35 37.8273 248.583 37.4873 248.75C37.1473 248.917 36.7373 249 36.2573 249H33.5873ZM34.4373 248.23H36.1073C36.6273 248.23 37.0173 248.12 37.2773 247.9C37.544 247.68 37.6773 247.363 37.6773 246.95C37.6773 246.53 37.544 246.21 37.2773 245.99C37.0173 245.77 36.6273 245.66 36.1073 245.66H34.4373V248.23ZM34.4373 244.9H36.0673C36.494 244.9 36.8173 244.81 37.0373 244.63C37.264 244.45 37.3773 244.18 37.3773 243.82C37.3773 243.467 37.264 243.2 37.0373 243.02C36.8173 242.84 36.494 242.75 36.0673 242.75H34.4373V244.9ZM41.5573 249.08C41.184 249.08 40.854 248.997 40.5673 248.83C40.2873 248.657 40.0706 248.417 39.9173 248.11C39.764 247.803 39.6873 247.447 39.6873 247.04V243.96H40.4873V246.91C40.4873 247.337 40.6006 247.683 40.8273 247.95C41.0606 248.217 41.3673 248.35 41.7473 248.35C42.034 248.35 42.2873 248.28 42.5073 248.14C42.734 247.993 42.9106 247.793 43.0373 247.54C43.164 247.287 43.2273 247 43.2273 246.68V243.96H44.0273V249H43.2273V248.03C43.094 248.377 42.8806 248.64 42.5873 248.82C42.294 248.993 41.9506 249.08 41.5573 249.08ZM47.6181 249.08C47.0981 249.08 46.6581 248.967 46.2981 248.74C45.9448 248.507 45.6748 248.193 45.4881 247.8C45.3014 247.407 45.2081 246.967 45.2081 246.48C45.2081 246.113 45.2614 245.773 45.3681 245.46C45.4748 245.147 45.6281 244.87 45.8281 244.63C46.0348 244.39 46.2881 244.207 46.5881 244.08C46.8881 243.947 47.2348 243.88 47.6281 243.88C47.9814 243.88 48.3114 243.963 48.6181 244.13C48.9248 244.297 49.1548 244.513 49.3081 244.78V241.89H50.1081V249H49.3081V248.17C49.1548 248.443 48.9248 248.663 48.6181 248.83C48.3114 248.997 47.9781 249.08 47.6181 249.08ZM47.7081 248.36C47.9614 248.36 48.1881 248.317 48.3881 248.23C48.5948 248.137 48.7714 248.01 48.9181 247.85C49.0714 247.683 49.1848 247.487 49.2581 247.26C49.3381 247.027 49.3781 246.767 49.3781 246.48C49.3781 245.907 49.2248 245.45 48.9181 245.11C48.6181 244.77 48.2148 244.6 47.7081 244.6C47.4548 244.6 47.2248 244.647 47.0181 244.74C46.8181 244.827 46.6414 244.953 46.4881 245.12C46.3414 245.28 46.2281 245.477 46.1481 245.71C46.0748 245.937 46.0381 246.193 46.0381 246.48C46.0381 247.047 46.1881 247.503 46.4881 247.85C46.7948 248.19 47.2014 248.36 47.7081 248.36ZM51.9521 251.04V250.35H54.2821C54.6087 250.35 54.8754 250.24 55.0821 250.02C55.2887 249.807 55.3921 249.53 55.3921 249.19V248.3C55.2721 248.533 55.0554 248.723 54.7421 248.87C54.4287 249.01 54.0821 249.08 53.7021 249.08C53.1821 249.08 52.7421 248.967 52.3821 248.74C52.0287 248.507 51.7587 248.193 51.5721 247.8C51.3854 247.407 51.2921 246.967 51.2921 246.48C51.2921 246.113 51.3454 245.773 51.4521 245.46C51.5587 245.147 51.7121 244.87 51.9121 244.63C52.1187 244.39 52.3721 244.207 52.6721 244.08C52.9721 243.947 53.3187 243.88 53.7121 243.88C53.9321 243.88 54.1487 243.917 54.3621 243.99C54.5821 244.057 54.7821 244.153 54.9621 244.28C55.1421 244.4 55.2854 244.54 55.3921 244.7V243.96H56.1921V249.22C56.1921 249.58 56.1154 249.897 55.9621 250.17C55.8087 250.443 55.5887 250.657 55.3021 250.81C55.0221 250.963 54.6987 251.04 54.3321 251.04H51.9521ZM53.7921 248.36C54.1321 248.36 54.4254 248.283 54.6721 248.13C54.9187 247.977 55.1121 247.76 55.2521 247.48C55.3921 247.193 55.4621 246.86 55.4621 246.48C55.4621 245.907 55.3087 245.45 55.0021 245.11C54.7021 244.77 54.2987 244.6 53.7921 244.6C53.5387 244.6 53.3087 244.647 53.1021 244.74C52.9021 244.827 52.7254 244.953 52.5721 245.12C52.4254 245.28 52.3121 245.477 52.2321 245.71C52.1587 245.937 52.1221 246.193 52.1221 246.48C52.1221 247.047 52.2721 247.503 52.5721 247.85C52.8787 248.19 53.2854 248.36 53.7921 248.36ZM59.8561 249.08C59.4827 249.08 59.1427 249.013 58.8361 248.88C58.5294 248.74 58.2661 248.55 58.0461 248.31C57.8261 248.063 57.6561 247.78 57.5361 247.46C57.4161 247.14 57.3561 246.803 57.3561 246.45C57.3561 246.083 57.4094 245.743 57.5161 245.43C57.6294 245.117 57.7894 244.847 57.9961 244.62C58.2094 244.387 58.4627 244.207 58.7561 244.08C59.0561 243.947 59.3927 243.88 59.7661 243.88C60.1327 243.88 60.4594 243.94 60.7461 244.06C61.0394 244.18 61.2861 244.347 61.4861 244.56C61.6927 244.773 61.8494 245.023 61.9561 245.31C62.0627 245.597 62.1161 245.907 62.1161 246.24C62.1161 246.3 62.1127 246.36 62.1061 246.42C62.1061 246.48 62.1027 246.54 62.0961 246.6H57.8261V245.94H61.2861C61.2594 245.513 61.1094 245.177 60.8361 244.93C60.5694 244.683 60.2127 244.56 59.7661 244.56C59.5194 244.56 59.2961 244.603 59.0961 244.69C58.8961 244.77 58.7261 244.893 58.5861 245.06C58.4461 245.22 58.3394 245.417 58.2661 245.65C58.1927 245.877 58.1561 246.14 58.1561 246.44C58.1561 246.813 58.2294 247.147 58.3761 247.44C58.5227 247.727 58.7227 247.953 58.9761 248.12C59.2361 248.287 59.5294 248.37 59.8561 248.37C60.2627 248.37 60.5927 248.287 60.8461 248.12C61.0994 247.947 61.2661 247.7 61.3461 247.38H62.1661C62.1127 247.72 61.9794 248.02 61.7661 248.28C61.5594 248.533 61.2927 248.73 60.9661 248.87C60.6461 249.01 60.2761 249.08 59.8561 249.08ZM65.2432 249C64.7632 249 64.3798 248.86 64.0932 248.58C63.8065 248.3 63.6632 247.913 63.6632 247.42V244.67H62.6132V243.96H63.6632V242.35H64.4632V243.96H66.0132V244.67H64.4632V247.4C64.4632 247.68 64.5365 247.9 64.6832 248.06C64.8298 248.213 65.0265 248.29 65.2732 248.29H66.0132V249H65.2432Z" fill="#0A0A0A" fill-opacity="0.8"/>
<path d="M138 234H84C82.8954 234 82 234.895 82 236V254C82 255.105 82.8954 256 84 256H138C139.105 256 140 255.105 140 254V236C140 234.895 139.105 234 138 234Z" fill="#0A0A0A" fill-opacity="0.1"/>
<path d="M94.6508 249V242.77H92.4108V242H97.7508V242.77H95.5108V249H94.6508ZM98.6272 249V243.96H99.4272V249H98.6272ZM98.5672 241.89H99.4872V243.01H98.5672V241.89ZM100.961 249V243.96H101.771V244.93C101.865 244.617 102.045 244.363 102.311 244.17C102.585 243.977 102.915 243.88 103.301 243.88C103.701 243.88 104.051 243.973 104.351 244.16C104.658 244.347 104.858 244.613 104.951 244.96C105.018 244.753 105.131 244.57 105.291 244.41C105.451 244.243 105.645 244.113 105.871 244.02C106.098 243.927 106.331 243.88 106.571 243.88C106.938 243.88 107.251 243.96 107.511 244.12C107.771 244.273 107.971 244.497 108.111 244.79C108.258 245.077 108.331 245.423 108.331 245.83V249H107.521V246.04C107.521 245.613 107.421 245.267 107.221 245C107.021 244.733 106.741 244.6 106.381 244.6C106.108 244.6 105.868 244.68 105.661 244.84C105.461 245 105.308 245.207 105.201 245.46C105.095 245.713 105.041 245.983 105.041 246.27V249H104.241V246.04C104.241 245.613 104.141 245.267 103.941 245C103.741 244.733 103.465 244.6 103.111 244.6C102.831 244.6 102.591 244.68 102.391 244.84C102.191 245 102.038 245.207 101.931 245.46C101.825 245.713 101.771 245.983 101.771 246.27V249H100.961ZM111.92 249.08C111.546 249.08 111.206 249.013 110.9 248.88C110.593 248.74 110.33 248.55 110.11 248.31C109.89 248.063 109.72 247.78 109.6 247.46C109.48 247.14 109.42 246.803 109.42 246.45C109.42 246.083 109.473 245.743 109.58 245.43C109.693 245.117 109.853 244.847 110.06 244.62C110.273 244.387 110.526 244.207 110.82 244.08C111.12 243.947 111.456 243.88 111.83 243.88C112.196 243.88 112.523 243.94 112.81 244.06C113.103 244.18 113.35 244.347 113.55 244.56C113.756 244.773 113.913 245.023 114.02 245.31C114.126 245.597 114.18 245.907 114.18 246.24C114.18 246.3 114.176 246.36 114.17 246.42C114.17 246.48 114.166 246.54 114.16 246.6H109.89V245.94H113.35C113.323 245.513 113.173 245.177 112.9 244.93C112.633 244.683 112.276 244.56 111.83 244.56C111.583 244.56 111.36 244.603 111.16 244.69C110.96 244.77 110.79 244.893 110.65 245.06C110.51 245.22 110.403 245.417 110.33 245.65C110.256 245.877 110.22 246.14 110.22 246.44C110.22 246.813 110.293 247.147 110.44 247.44C110.586 247.727 110.786 247.953 111.04 248.12C111.3 248.287 111.593 248.37 111.92 248.37C112.326 248.37 112.656 248.287 112.91 248.12C113.163 247.947 113.33 247.7 113.41 247.38H114.23C114.176 247.72 114.043 248.02 113.83 248.28C113.623 248.533 113.356 248.73 113.03 248.87C112.71 249.01 112.34 249.08 111.92 249.08ZM115.385 249V241.89H116.185V249H115.385ZM117.719 249V243.96H118.519V249H117.719ZM117.659 241.89H118.579V243.01H117.659V241.89ZM120.053 249V243.96H120.853V244.93C120.993 244.583 121.21 244.323 121.503 244.15C121.796 243.97 122.136 243.88 122.523 243.88C122.903 243.88 123.233 243.967 123.513 244.14C123.8 244.307 124.02 244.543 124.173 244.85C124.326 245.15 124.403 245.507 124.403 245.92V249H123.593V246.05C123.593 245.617 123.48 245.27 123.253 245.01C123.026 244.743 122.723 244.61 122.343 244.61C122.05 244.61 121.79 244.683 121.563 244.83C121.343 244.97 121.17 245.167 121.043 245.42C120.916 245.667 120.853 245.953 120.853 246.28V249H120.053ZM127.994 249.08C127.62 249.08 127.28 249.013 126.974 248.88C126.667 248.74 126.404 248.55 126.184 248.31C125.964 248.063 125.794 247.78 125.674 247.46C125.554 247.14 125.494 246.803 125.494 246.45C125.494 246.083 125.547 245.743 125.654 245.43C125.767 245.117 125.927 244.847 126.134 244.62C126.347 244.387 126.6 244.207 126.894 244.08C127.194 243.947 127.53 243.88 127.904 243.88C128.27 243.88 128.597 243.94 128.884 244.06C129.177 244.18 129.424 244.347 129.624 244.56C129.83 244.773 129.987 245.023 130.094 245.31C130.2 245.597 130.254 245.907 130.254 246.24C130.254 246.3 130.25 246.36 130.244 246.42C130.244 246.48 130.24 246.54 130.234 246.6H125.964V245.94H129.424C129.397 245.513 129.247 245.177 128.974 244.93C128.707 244.683 128.35 244.56 127.904 244.56C127.657 244.56 127.434 244.603 127.234 244.69C127.034 244.77 126.864 244.893 126.724 245.06C126.584 245.22 126.477 245.417 126.404 245.65C126.33 245.877 126.294 246.14 126.294 246.44C126.294 246.813 126.367 247.147 126.514 247.44C126.66 247.727 126.86 247.953 127.114 248.12C127.374 248.287 127.667 248.37 127.994 248.37C128.4 248.37 128.73 248.287 128.984 248.12C129.237 247.947 129.404 247.7 129.484 247.38H130.304C130.25 247.72 130.117 248.02 129.904 248.28C129.697 248.533 129.43 248.73 129.104 248.87C128.784 249.01 128.414 249.08 127.994 249.08Z" fill="#0A0A0A" fill-opacity="0.8"/>
<path d="M214 234H148C146.895 234 146 234.895 146 236V254C146 255.105 146.895 256 148 256H214C215.105 256 216 255.105 216 254V236C216 234.895 215.105 234 214 234Z" fill="#0A0A0A" fill-opacity="0.1"/>
<path d="M157.164 249V242H158.024V249H157.164ZM158.024 242.77H157.164V242H158.024V242.77ZM158.024 249H157.164V248.23H158.024V249ZM159.614 249V243.96H160.414V244.93C160.554 244.583 160.77 244.323 161.064 244.15C161.357 243.97 161.697 243.88 162.084 243.88C162.464 243.88 162.794 243.967 163.074 244.14C163.36 244.307 163.58 244.543 163.734 244.85C163.887 245.15 163.964 245.507 163.964 245.92V249H163.154V246.05C163.154 245.617 163.04 245.27 162.814 245.01C162.587 244.743 162.284 244.61 161.904 244.61C161.61 244.61 161.35 244.683 161.124 244.83C160.904 244.97 160.73 245.167 160.604 245.42C160.477 245.667 160.414 245.953 160.414 246.28V249H159.614ZM167.326 249C166.846 249 166.463 248.86 166.176 248.58C165.89 248.3 165.746 247.913 165.746 247.42V244.67H164.696V243.96H165.746V242.35H166.546V243.96H168.096V244.67H166.546V247.4C166.546 247.68 166.62 247.9 166.766 248.06C166.913 248.213 167.11 248.29 167.356 248.29H168.096V249H167.326ZM171.148 249.08C170.775 249.08 170.435 249.013 170.128 248.88C169.821 248.74 169.558 248.55 169.338 248.31C169.118 248.063 168.948 247.78 168.828 247.46C168.708 247.14 168.648 246.803 168.648 246.45C168.648 246.083 168.701 245.743 168.808 245.43C168.921 245.117 169.081 244.847 169.288 244.62C169.501 244.387 169.755 244.207 170.048 244.08C170.348 243.947 170.685 243.88 171.058 243.88C171.425 243.88 171.751 243.94 172.038 244.06C172.331 244.18 172.578 244.347 172.778 244.56C172.985 244.773 173.141 245.023 173.248 245.31C173.355 245.597 173.408 245.907 173.408 246.24C173.408 246.3 173.405 246.36 173.398 246.42C173.398 246.48 173.395 246.54 173.388 246.6H169.118V245.94H172.578C172.551 245.513 172.401 245.177 172.128 244.93C171.861 244.683 171.505 244.56 171.058 244.56C170.811 244.56 170.588 244.603 170.388 244.69C170.188 244.77 170.018 244.893 169.878 245.06C169.738 245.22 169.631 245.417 169.558 245.65C169.485 245.877 169.448 246.14 169.448 246.44C169.448 246.813 169.521 247.147 169.668 247.44C169.815 247.727 170.015 247.953 170.268 248.12C170.528 248.287 170.821 248.37 171.148 248.37C171.555 248.37 171.885 248.287 172.138 248.12C172.391 247.947 172.558 247.7 172.638 247.38H173.458C173.405 247.72 173.271 248.02 173.058 248.28C172.851 248.533 172.585 248.73 172.258 248.87C171.938 249.01 171.568 249.08 171.148 249.08ZM174.934 251.04V250.35H177.264C177.59 250.35 177.857 250.24 178.064 250.02C178.27 249.807 178.374 249.53 178.374 249.19V248.3C178.254 248.533 178.037 248.723 177.724 248.87C177.41 249.01 177.064 249.08 176.684 249.08C176.164 249.08 175.724 248.967 175.364 248.74C175.01 248.507 174.74 248.193 174.554 247.8C174.367 247.407 174.274 246.967 174.274 246.48C174.274 246.113 174.327 245.773 174.434 245.46C174.54 245.147 174.694 244.87 174.894 244.63C175.1 244.39 175.354 244.207 175.654 244.08C175.954 243.947 176.3 243.88 176.694 243.88C176.914 243.88 177.13 243.917 177.344 243.99C177.564 244.057 177.764 244.153 177.944 244.28C178.124 244.4 178.267 244.54 178.374 244.7V243.96H179.174V249.22C179.174 249.58 179.097 249.897 178.944 250.17C178.79 250.443 178.57 250.657 178.284 250.81C178.004 250.963 177.68 251.04 177.314 251.04H174.934ZM176.774 248.36C177.114 248.36 177.407 248.283 177.654 248.13C177.9 247.977 178.094 247.76 178.234 247.48C178.374 247.193 178.444 246.86 178.444 246.48C178.444 245.907 178.29 245.45 177.984 245.11C177.684 244.77 177.28 244.6 176.774 244.6C176.52 244.6 176.29 244.647 176.084 244.74C175.884 244.827 175.707 244.953 175.554 245.12C175.407 245.28 175.294 245.477 175.214 245.71C175.14 245.937 175.104 246.193 175.104 246.48C175.104 247.047 175.254 247.503 175.554 247.85C175.86 248.19 176.267 248.36 176.774 248.36ZM180.698 249V243.96H181.498V244.98C181.611 244.633 181.774 244.377 181.988 244.21C182.208 244.043 182.501 243.96 182.868 243.96H183.508V244.67H182.818C182.478 244.67 182.211 244.763 182.018 244.95C181.831 245.137 181.698 245.39 181.618 245.71C181.538 246.023 181.498 246.38 181.498 246.78V249H180.698ZM185.684 249.08C185.337 249.08 185.03 249.017 184.764 248.89C184.504 248.763 184.3 248.587 184.154 248.36C184.014 248.127 183.944 247.86 183.944 247.56C183.944 247.233 184.024 246.95 184.184 246.71C184.35 246.47 184.584 246.287 184.884 246.16C185.184 246.027 185.537 245.96 185.944 245.96H187.114C187.22 245.96 187.297 245.94 187.344 245.9C187.39 245.86 187.414 245.8 187.414 245.72C187.414 245.38 187.294 245.103 187.054 244.89C186.82 244.67 186.49 244.56 186.064 244.56C185.817 244.56 185.594 244.607 185.394 244.7C185.194 244.793 185.03 244.917 184.904 245.07C184.784 245.223 184.717 245.393 184.704 245.58H183.934C183.967 245.247 184.08 244.953 184.274 244.7C184.474 244.447 184.73 244.247 185.044 244.1C185.357 243.953 185.7 243.88 186.074 243.88C186.514 243.88 186.89 243.96 187.204 244.12C187.524 244.273 187.77 244.49 187.944 244.77C188.124 245.05 188.214 245.377 188.214 245.75V249H187.414V248.13C187.32 248.317 187.187 248.483 187.014 248.63C186.847 248.77 186.65 248.88 186.424 248.96C186.197 249.04 185.95 249.08 185.684 249.08ZM185.804 248.4C186.31 248.4 186.704 248.253 186.984 247.96C187.27 247.66 187.414 247.25 187.414 246.73V246.62H185.994C185.627 246.62 185.33 246.703 185.104 246.87C184.877 247.03 184.764 247.257 184.764 247.55C184.764 247.803 184.857 248.01 185.044 248.17C185.237 248.323 185.49 248.4 185.804 248.4ZM191.584 249C191.104 249 190.721 248.86 190.434 248.58C190.147 248.3 190.004 247.913 190.004 247.42V244.67H188.954V243.96H190.004V242.35H190.804V243.96H192.354V244.67H190.804V247.4C190.804 247.68 190.877 247.9 191.024 248.06C191.171 248.213 191.367 248.29 191.614 248.29H192.354V249H191.584ZM193.364 249V243.96H194.164V249H193.364ZM193.304 241.89H194.224V243.01H193.304V241.89ZM197.908 249.08C197.414 249.08 196.971 248.97 196.578 248.75C196.191 248.523 195.888 248.217 195.668 247.83C195.454 247.437 195.348 246.987 195.348 246.48C195.348 245.973 195.454 245.527 195.668 245.14C195.888 244.747 196.191 244.44 196.578 244.22C196.971 243.993 197.414 243.88 197.908 243.88C198.408 243.88 198.851 243.993 199.238 244.22C199.624 244.44 199.928 244.747 200.148 245.14C200.368 245.527 200.478 245.973 200.478 246.48C200.478 246.987 200.368 247.437 200.148 247.83C199.928 248.217 199.624 248.523 199.238 248.75C198.851 248.97 198.408 249.08 197.908 249.08ZM197.908 248.36C198.254 248.36 198.558 248.28 198.818 248.12C199.084 247.96 199.288 247.74 199.428 247.46C199.574 247.173 199.648 246.847 199.648 246.48C199.648 246.113 199.574 245.79 199.428 245.51C199.288 245.223 199.084 245 198.818 244.84C198.558 244.68 198.254 244.6 197.908 244.6C197.568 244.6 197.264 244.68 196.998 244.84C196.738 245 196.534 245.223 196.388 245.51C196.241 245.79 196.168 246.113 196.168 246.48C196.168 246.847 196.241 247.173 196.388 247.46C196.534 247.74 196.738 247.96 196.998 248.12C197.258 248.28 197.561 248.36 197.908 248.36ZM201.645 249V243.96H202.445V244.93C202.585 244.583 202.801 244.323 203.095 244.15C203.388 243.97 203.728 243.88 204.115 243.88C204.495 243.88 204.825 243.967 205.105 244.14C205.391 244.307 205.611 244.543 205.765 244.85C205.918 245.15 205.995 245.507 205.995 245.92V249H205.185V246.05C205.185 245.617 205.071 245.27 204.845 245.01C204.618 244.743 204.315 244.61 203.935 244.61C203.641 244.61 203.381 244.683 203.155 244.83C202.935 244.97 202.761 245.167 202.635 245.42C202.508 245.667 202.445 245.953 202.445 246.28V249H201.645Z" fill="#0A0A0A" fill-opacity="0.8"/>
<path d="M24.477 284.862H28.914V285.483H27.033V291H26.358V285.483H24.477V284.862ZM34.3825 291H33.6805L33.1495 289.101H31.0615L30.5305 291H29.8105L31.5925 284.862H32.6185L34.3825 291ZM32.0695 285.492L31.2325 288.48H32.9785L32.1505 285.492H32.0695ZM36.557 284.862V290.379H39.527V291H35.891V284.862H36.557ZM45.0855 284.862L43.1955 287.409L45.2385 291H44.5095L42.8175 288.021H42.7365L41.7555 289.344V291H41.0895V284.862H41.7555V288.219H41.8365L44.3205 284.862H45.0855ZM55.7884 286.707V286.734C55.7884 287.913 55.2034 288.48 54.2314 288.57V288.615L55.7074 291H54.9514L53.4664 288.579H52.5664V291H51.9004V284.862H53.9434C55.0864 284.862 55.7884 285.411 55.7884 286.707ZM55.1224 286.734V286.707C55.1224 285.771 54.7624 285.483 53.9434 285.483H52.5664V287.958H53.9434C54.7624 287.958 55.1224 287.67 55.1224 286.734ZM61.3649 291H60.6629L60.1319 289.101H58.0439L57.5129 291H56.7929L58.5749 284.862H59.6009L61.3649 291ZM59.0519 285.492L58.2149 288.48H59.9609L59.1329 285.492H59.0519ZM62.2524 284.862H66.6894V285.483H64.8084V291H64.1334V285.483H62.2524V284.862ZM71.7709 284.862V285.483H70.2049V290.379H71.7709V291H67.9729V290.379H69.5299V285.483H67.9729V284.862H71.7709ZM75.2864 291.09H75.2504C74.0624 291.09 73.2344 290.442 73.2344 288.894V286.968C73.2344 285.42 74.0624 284.772 75.2504 284.772H75.2864C76.4924 284.772 77.3024 285.429 77.3024 286.968V288.894C77.3024 290.433 76.4924 291.09 75.2864 291.09ZM75.2504 290.478H75.2864C76.1684 290.478 76.6364 290.073 76.6364 288.894V286.95C76.6364 285.789 76.1684 285.384 75.2864 285.384H75.2504C74.3594 285.384 73.9004 285.789 73.9004 286.95V288.894C73.9004 290.073 74.3594 290.478 75.2504 290.478Z" fill="#0A0A0A" fill-opacity="0.6"/>
<path d="M98 300H25C24.4477 300 24 300.448 24 301V307C24 307.552 24.4477 308 25 308H98C98.5523 308 99 307.552 99 307V301C99 300.448 98.5523 300 98 300Z" fill="#0A0A0A" fill-opacity="0.4"/>
<path d="M215 300H103C102.448 300 102 300.448 102 301V307C102 307.552 102.448 308 103 308H215C215.552 308 216 307.552 216 307V301C216 300.448 215.552 300 215 300Z" fill="#0A0A0A" fill-opacity="0.15"/>
<path d="M24 324H216" stroke="#0A0A0A" stroke-opacity="0.15"/>
<path d="M27.366 347.11C25.672 347.11 24.682 346.197 24.682 344.492H25.903C25.903 345.614 26.255 346.01 27.355 346.01C28.356 346.01 28.774 345.658 28.774 344.789C28.774 344.03 28.499 343.755 27.674 343.755H26.64V342.633H27.344C28.169 342.633 28.51 342.347 28.51 341.555C28.51 340.829 28.158 340.488 27.344 340.488C26.365 340.488 26.068 340.884 26.068 341.918H24.858C24.858 340.301 25.782 339.388 27.344 339.388C28.84 339.388 29.731 340.235 29.731 341.478C29.731 342.325 29.335 342.831 28.653 343.084V343.216C29.489 343.392 29.995 343.92 29.995 344.899C29.995 346.307 29.005 347.11 27.366 347.11ZM34.3247 342.083H34.3687C35.5787 342.083 36.5137 342.732 36.5137 344.525V344.591C36.5137 346.285 35.5567 347.11 33.9507 347.11H33.8957C32.3007 347.11 31.3327 346.197 31.3327 344.679H32.5427C32.5427 345.592 32.8837 345.999 33.8957 345.999H33.9617C34.9297 345.999 35.3037 345.592 35.3037 344.613V344.536C35.3037 343.799 35.0287 343.172 33.9947 343.172H33.9507C33.1697 343.172 32.6637 343.48 32.3337 343.865L31.5087 343.656L31.7287 339.498H36.1947V340.631H32.8287L32.6857 342.787H32.8067C33.0157 342.38 33.5657 342.083 34.3247 342.083ZM39.1714 342.655C38.2474 342.655 37.5544 341.918 37.5544 341.005C37.5544 340.125 38.2694 339.388 39.1714 339.388C40.0844 339.388 40.8104 340.125 40.8104 341.005C40.8104 341.929 40.0844 342.655 39.1714 342.655ZM42.0094 342.468H41.1734V342.358L42.4824 339.498H43.4394L42.0094 342.468ZM39.1714 341.83C39.6334 341.83 39.9854 341.478 39.9854 341.016C39.9854 340.576 39.6334 340.213 39.1714 340.213C38.7204 340.213 38.3684 340.576 38.3684 341.016C38.3684 341.467 38.7094 341.83 39.1714 341.83ZM41.8004 347.11C40.8764 347.11 40.1724 346.362 40.1724 345.471C40.1724 344.569 40.8984 343.843 41.8004 343.843C42.7134 343.843 43.4284 344.569 43.4284 345.471C43.4284 346.373 42.7134 347.11 41.8004 347.11ZM38.4674 347H37.4994L38.9294 344.03H39.7544V344.14L38.4674 347ZM41.8004 346.285C42.2624 346.285 42.6144 345.922 42.6144 345.471C42.6144 345.02 42.2624 344.668 41.8004 344.668C41.3494 344.668 40.9974 345.02 40.9974 345.471C40.9974 345.922 41.3384 346.285 41.8004 346.285ZM50.9108 339.498H56.4438V340.631H54.2878V347H53.0668V340.631H50.9108V339.498ZM62.3245 343.623V345.922H63.2485V347H61.2685L61.1805 346.043H61.0485C60.8065 346.571 60.2455 347.11 59.2885 347.11H59.2445C58.2875 347.11 57.6275 346.483 57.6275 345.559V345.515C57.6275 344.602 58.2655 344.107 59.5525 343.975L61.1585 343.799V343.634C61.1585 342.754 60.8175 342.446 60.1795 342.446H60.1355C59.5745 342.446 59.1015 342.655 59.0355 343.458H57.8035C57.9465 342.006 58.9035 341.379 60.1795 341.379H60.2125C61.5985 341.379 62.3245 342.116 62.3245 343.623ZM59.5085 346.098H59.5525C60.3225 346.098 61.1365 345.559 61.1585 344.635L59.7395 344.789C59.0025 344.866 58.7825 345.119 58.7825 345.482V345.515C58.7825 345.889 59.0465 346.098 59.5085 346.098ZM67.5122 345.922H69.4482V347H67.5012C66.5112 347 65.9282 346.351 65.9282 345.438V340.158H63.9702V339.08H67.1492V345.57C67.1492 345.834 67.2152 345.922 67.5122 345.922ZM76.3299 347H74.9659L73.3159 344.36L72.4799 345.163V347H71.2589V339.08H72.4799V343.634H72.6009L74.7239 341.489H76.2749L74.1079 343.59L76.3299 347ZM83.8893 339.498H89.4223V340.631H87.2663V347H86.0453V340.631H83.8893V339.498ZM92.718 338.893H94.412V340.51H92.718V338.893ZM94.522 345.922H96.161V347H94.522C93.532 347 92.949 346.351 92.949 345.438V342.578H90.969V341.489H94.17V345.57C94.17 345.834 94.236 345.922 94.522 345.922ZM98.1037 347H96.9927V341.489H98.1037V342.226H98.2247C98.3457 341.72 98.7197 341.379 99.2257 341.379H99.2697C99.7427 341.379 100.139 341.665 100.315 342.226H100.436C100.612 341.72 100.975 341.379 101.503 341.379H101.547C102.196 341.379 102.724 341.874 102.724 342.842V347H101.602V343.117C101.602 342.611 101.404 342.435 101.118 342.435H101.074C100.711 342.435 100.414 342.677 100.414 343.282V347H99.3027V343.117C99.3027 342.611 99.0937 342.435 98.8077 342.435H98.7637C98.4007 342.435 98.1037 342.677 98.1037 343.282V347ZM108.912 343.942V344.569H105.172C105.172 345.669 105.623 346.032 106.415 346.032H106.481C107.075 346.032 107.482 345.845 107.669 345.35H108.857C108.571 346.527 107.658 347.11 106.481 347.11H106.415C104.996 347.11 103.984 346.274 103.984 344.558V343.942C103.984 342.226 104.996 341.379 106.415 341.379H106.481C107.9 341.379 108.912 342.226 108.912 343.942ZM106.481 342.468H106.415C105.678 342.468 105.238 342.776 105.183 343.711H107.724C107.669 342.776 107.218 342.468 106.481 342.468Z" fill="#0A0A0A" fill-opacity="0.9"/>
<path d="M147.583 343.997H145.911V342.358H147.583V343.997ZM157.464 339.498H159.972C161.468 339.498 162.524 340.411 162.524 342.248V344.25C162.524 346.087 161.468 347 159.972 347H157.464V339.498ZM161.303 344.25V342.248C161.303 340.994 160.885 340.631 159.972 340.631H158.685V345.867H159.972C160.885 345.867 161.303 345.493 161.303 344.25ZM165.995 338.893H167.689V340.51H165.995V338.893ZM167.799 345.922H169.438V347H167.799C166.809 347 166.226 346.351 166.226 345.438V342.578H164.246V341.489H167.447V345.57C167.447 345.834 167.513 345.922 167.799 345.922ZM173.24 347.11H173.207C171.678 347.11 170.765 346.472 170.721 345.163H171.909C171.92 345.834 172.217 346.12 173.196 346.12H173.229C174.032 346.12 174.384 345.878 174.384 345.449C174.384 344.921 173.79 344.811 173.042 344.668C172.008 344.459 170.82 344.195 170.82 343.018C170.82 342.006 171.612 341.379 173.009 341.379H173.042C174.527 341.379 175.341 342.039 175.396 343.293H174.197C174.175 342.644 173.878 342.369 173.053 342.369H173.02C172.228 342.369 171.986 342.655 171.986 342.996C171.986 343.48 172.558 343.612 173.273 343.744C174.318 343.942 175.539 344.173 175.539 345.416C175.539 346.461 174.692 347.11 173.24 347.11ZM179.77 347.11H179.704C178.274 347.11 177.262 346.274 177.262 344.558V343.942C177.262 342.226 178.274 341.379 179.704 341.379H179.77C181.079 341.379 182.047 342.083 182.124 343.491H180.936C180.87 342.721 180.452 342.468 179.77 342.468H179.704C178.901 342.468 178.45 342.82 178.45 343.942V344.558C178.45 345.669 178.901 346.032 179.704 346.032H179.77C180.441 346.032 180.87 345.768 180.936 345.009H182.124C182.047 346.417 181.068 347.11 179.77 347.11ZM186.354 347.11H186.288C184.869 347.11 183.857 346.274 183.857 344.558V343.942C183.857 342.226 184.869 341.379 186.288 341.379H186.354C187.773 341.379 188.785 342.226 188.785 343.942V344.558C188.785 346.274 187.773 347.11 186.354 347.11ZM186.288 346.032H186.354C187.146 346.032 187.608 345.669 187.608 344.558V343.942C187.608 342.82 187.146 342.468 186.354 342.468H186.288C185.496 342.468 185.045 342.82 185.045 343.942V344.558C185.045 345.669 185.496 346.032 186.288 346.032ZM193.808 347H192.015L190.145 341.489H191.41L192.84 345.944H192.983L194.413 341.489H195.678L193.808 347ZM201.977 343.942V344.569H198.237C198.237 345.669 198.688 346.032 199.48 346.032H199.546C200.14 346.032 200.547 345.845 200.734 345.35H201.922C201.636 346.527 200.723 347.11 199.546 347.11H199.48C198.061 347.11 197.049 346.274 197.049 344.558V343.942C197.049 342.226 198.061 341.379 199.48 341.379H199.546C200.965 341.379 201.977 342.226 201.977 343.942ZM199.546 342.468H199.48C198.743 342.468 198.303 342.776 198.248 343.711H200.789C200.734 342.776 200.283 342.468 199.546 342.468ZM208.826 342.578H207.55C206.395 342.578 206.142 343.227 206.142 343.876V345.922H208.1V347H203.634V345.922H204.976V342.578H203.634V341.489H206.043L206.142 342.457H206.274C206.505 341.808 206.923 341.489 207.726 341.489H208.826V342.578ZM212.77 345.944L214.2 341.489H215.465L213.375 347.594C213.078 348.507 212.44 349.156 211.307 349.156H210.119V348.078H211.626C211.945 348.078 212.033 348.001 212.132 347.704L212.396 347H211.802L209.932 341.489H211.197L212.616 345.944H212.77Z" fill="#0A0A0A" fill-opacity="0.6"/>
</g>
<defs>
<clipPath id="clip0_21_2272">
<rect width="240" height="360" fill="white"/>
</clipPath>
</defs>
</svg>
