<svg width="100" height="100" viewBox="0 0 100 100" fill="none" xmlns="http://www.w3.org/2000/svg">
<path d="M56.25 43.75H43.75V56.25H56.25V43.75Z" fill="#F87171"/>
<path opacity="0.7" d="M68.75 31.25H31.25V37.5H68.75V31.25Z" fill="#F87171"/>
<path opacity="0.7" d="M68.75 62.5H31.25V68.75H68.75V62.5Z" fill="#F87171"/>
<path opacity="0.7" d="M37.5 31.25H31.25V68.75H37.5V31.25Z" fill="#F87171"/>
<path opacity="0.7" d="M68.75 31.25H62.5V68.75H68.75V31.25Z" fill="#F87171"/>
<path opacity="0.4" d="M81.25 18.75H18.75V25H81.25V18.75Z" fill="#F87171"/>
<path opacity="0.4" d="M81.25 75H18.75V81.25H81.25V75Z" fill="#F87171"/>
<path opacity="0.4" d="M25 18.75H18.75V81.25H25V18.75Z" fill="#F87171"/>
<path opacity="0.4" d="M81.25 18.75H75V81.25H81.25V18.75Z" fill="#F87171"/>
<path opacity="0.2" d="M93.75 6.25H6.25V12.5H93.75V6.25Z" fill="#F87171"/>
<path opacity="0.2" d="M93.75 87.5H6.25V93.75H93.75V87.5Z" fill="#F87171"/>
<path opacity="0.2" d="M12.5 6.25H6.25V93.75H12.5V6.25Z" fill="#F87171"/>
<path opacity="0.2" d="M93.75 6.25H87.5V93.75H93.75V6.25Z" fill="#F87171"/>
</svg>
