<svg width="100" height="100" viewBox="0 0 100 100" fill="none" xmlns="http://www.w3.org/2000/svg">
<path d="M68.75 6.25H18.75V18.75H68.75V6.25Z" fill="#A678F4"/>
<path d="M25 12.5H12.5V25H25V12.5Z" fill="#A678F4"/>
<path d="M25 25H12.5V93.75H25V25Z" fill="#A678F4"/>
<path d="M75 12.5H62.5V25H75V12.5Z" fill="#A678F4"/>
<path d="M75 25H62.5V81.25H75V25Z" fill="#A678F4"/>
<path d="M68.75 81.25H18.75V93.75H68.75V81.25Z" fill="#A678F4"/>
<path d="M37.5 25H25V31.25H37.5V25Z" fill="#46FCAF"/>
<path d="M31.25 31.25H25V43.75H31.25V31.25Z" fill="#46FCAF"/>
<path d="M56.25 25H43.75V31.25H56.25V25Z" fill="#46FCAF"/>
<path d="M50 31.25H43.75V43.75H50V31.25Z" fill="#46FCAF"/>
<path opacity="0.4" d="M62.5 50H25V56.25H62.5V50Z" fill="#A678F4"/>
<path opacity="0.4" d="M56.25 62.5H25V68.75H56.25V62.5Z" fill="#A678F4"/>
<path d="M93.75 68.75H75V75H93.75V68.75Z" fill="#FBBF24"/>
<path d="M87.5 62.5H81.25V81.25H87.5V62.5Z" fill="#FBBF24"/>
</svg>
