<svg width="84" height="84" viewBox="0 0 84 84" fill="none" xmlns="http://www.w3.org/2000/svg">
<path d="M50.0002 0H33.3335V16.6667H50.0002V0Z" fill="#67E8F9"/>
<path opacity="0.4" d="M45.8333 16.6666H37.5V29.1666H45.8333V16.6666Z" fill="#67E8F9"/>
<path opacity="0.4" d="M75.0002 29.1666H8.3335V33.3333H75.0002V29.1666Z" fill="#67E8F9"/>
<path opacity="0.4" d="M12.5002 29.1666H8.3335V41.6666H12.5002V29.1666Z" fill="#67E8F9"/>
<path opacity="0.4" d="M43.7502 29.1666H39.5835V41.6666H43.7502V29.1666Z" fill="#67E8F9"/>
<path opacity="0.4" d="M75.0002 29.1666H70.8335V41.6666H75.0002V29.1666Z" fill="#67E8F9"/>
<path opacity="0.7" d="M16.6667 41.6666H0V58.3333H16.6667V41.6666Z" fill="#8B5CF6"/>
<path opacity="0.7" d="M50.0002 41.6666H33.3335V58.3333H50.0002V41.6666Z" fill="#67E8F9"/>
<path opacity="0.7" d="M83.3334 41.6666H66.6667V58.3333H83.3334V41.6666Z" fill="#46FCAF"/>
<path opacity="0.3" d="M43.7502 58.3333H39.5835V66.6666H43.7502V58.3333Z" fill="#67E8F9"/>
<path opacity="0.5" d="M39.3334 66.6666H22.6667V83.3333H39.3334V66.6666Z" fill="#F87171"/>
<path opacity="0.5" d="M60.3334 66.6666H43.6667V83.3333H60.3334V66.6666Z" fill="#FBBF24"/>
</svg>
