<svg width="100" height="100" viewBox="0 0 100 100" fill="none" xmlns="http://www.w3.org/2000/svg">
<path d="M62.5 6.25H37.5V18.75H62.5V6.25Z" fill="#67E8F9"/>
<path d="M18.75 37.5H6.25V62.5H18.75V37.5Z" fill="#67E8F9"/>
<path d="M93.75 37.5H81.25V62.5H93.75V37.5Z" fill="#67E8F9"/>
<path d="M62.5 81.25H37.5V93.75H62.5V81.25Z" fill="#67E8F9"/>
<path d="M31.25 18.75H18.75V31.25H31.25V18.75Z" fill="#67E8F9"/>
<path d="M81.25 18.75H68.75V31.25H81.25V18.75Z" fill="#67E8F9"/>
<path d="M31.25 68.75H18.75V81.25H31.25V68.75Z" fill="#67E8F9"/>
<path d="M81.25 68.75H68.75V81.25H81.25V68.75Z" fill="#67E8F9"/>
<path d="M68.75 31.25H31.25V68.75H68.75V31.25Z" fill="#67E8F9"/>
<path d="M62.5 37.5H37.5V62.5H62.5V37.5Z" fill="#0A0A0A"/>
<path d="M52 42H48V58H52V42Z" fill="#46FCAF"/>
<path d="M58 48H42V52H58V48Z" fill="#46FCAF"/>
</svg>
