<svg width="100" height="100" viewBox="0 0 100 100" fill="none" xmlns="http://www.w3.org/2000/svg">
<path d="M18.75 43.75H6.25V56.25H18.75V43.75Z" fill="#67E8F9"/>
<path opacity="0.8" d="M37.5 31.25H25V43.75H37.5V31.25Z" fill="#67E8F9"/>
<path opacity="0.8" d="M37.5 56.25H25V68.75H37.5V56.25Z" fill="#67E8F9"/>
<path opacity="0.6" d="M56.25 18.75H43.75V31.25H56.25V18.75Z" fill="#67E8F9"/>
<path opacity="0.6" d="M56.25 43.75H43.75V56.25H56.25V43.75Z" fill="#67E8F9"/>
<path opacity="0.6" d="M56.25 68.75H43.75V81.25H56.25V68.75Z" fill="#67E8F9"/>
<path opacity="0.4" d="M75 6.25H62.5V18.75H75V6.25Z" fill="#67E8F9"/>
<path opacity="0.4" d="M75 31.25H62.5V43.75H75V31.25Z" fill="#67E8F9"/>
<path opacity="0.4" d="M75 56.25H62.5V68.75H75V56.25Z" fill="#67E8F9"/>
<path opacity="0.4" d="M75 81.25H62.5V93.75H75V81.25Z" fill="#67E8F9"/>
<path opacity="0.2" d="M93.75 18.75H81.25V31.25H93.75V18.75Z" fill="#67E8F9"/>
<path opacity="0.2" d="M93.75 43.75H81.25V56.25H93.75V43.75Z" fill="#67E8F9"/>
<path opacity="0.2" d="M93.75 68.75H81.25V81.25H93.75V68.75Z" fill="#67E8F9"/>
</svg>
