<svg width="394" height="233" viewBox="0 0 394 233" fill="none" xmlns="http://www.w3.org/2000/svg">
<path d="M98.25 101C92.95 101 88.75 102.45 85.65 105.35C82.55 108.25 81 112.2 81 117.2V158H64.5V117.8C64.5 112.7 65.3 108.1 66.9 104C68.5 99.9 70.75 96.4 73.65 93.5C76.65 90.6 80.2 88.4 84.3 86.9C88.5 85.3 93.15 84.5 98.25 84.5V101ZM104.273 122C104.273 116.6 105.173 111.6 106.973 107C108.873 102.4 111.473 98.45 114.773 95.15C118.073 91.75 121.973 89.15 126.473 87.35C131.073 85.45 136.073 84.5 141.473 84.5C146.873 84.5 151.823 85.45 156.323 87.35C160.923 89.15 164.873 91.75 168.173 95.15C171.473 98.45 174.023 102.4 175.823 107C177.723 111.6 178.673 116.6 178.673 122C178.673 122.7 178.623 123.4 178.523 124.1C178.523 124.7 178.423 125.5 178.223 126.5H121.073C121.973 131.6 124.173 135.65 127.673 138.65C131.273 141.55 135.873 143 141.473 143C145.273 143 148.623 142.3 151.523 140.9C154.523 139.5 156.923 137.45 158.723 134.75H176.723C175.523 138.55 173.823 142 171.623 145.1C169.423 148.1 166.773 150.7 163.673 152.9C160.673 155 157.273 156.65 153.473 157.85C149.773 158.95 145.773 159.5 141.473 159.5C136.073 159.5 131.073 158.6 126.473 156.8C121.973 154.9 118.073 152.3 114.773 149C111.473 145.7 108.873 141.75 106.973 137.15C105.173 132.55 104.273 127.5 104.273 122ZM161.123 114.5C159.723 110.3 157.323 107 153.923 104.6C150.523 102.2 146.373 101 141.473 101C136.473 101 132.273 102.2 128.873 104.6C125.473 107 123.123 110.3 121.823 114.5H161.123ZM306.697 101C301.397 101 297.197 102.45 294.097 105.35C290.997 108.25 289.447 112.2 289.447 117.2V158H272.947V117.8C272.947 112.7 273.747 108.1 275.347 104C276.947 99.9 279.197 96.4 282.097 93.5C285.097 90.6 288.647 88.4 292.747 86.9C296.947 85.3 301.597 84.5 306.697 84.5V101ZM369.721 57.5H386.221V131H369.721V121.25C369.721 118.35 369.171 115.7 368.071 113.3C367.071 110.8 365.671 108.65 363.871 106.85C362.071 105.05 359.921 103.65 357.421 102.65C355.021 101.55 352.371 101 349.471 101C346.671 101 344.021 101.55 341.521 102.65C339.121 103.65 336.971 105.05 335.071 106.85C333.271 108.65 331.821 110.8 330.721 113.3C329.721 115.7 329.221 118.35 329.221 121.25C329.221 124.05 329.721 126.7 330.721 129.2C331.821 131.7 333.271 133.85 335.071 135.65C336.971 137.45 339.121 138.9 341.521 140C344.021 141 346.671 141.5 349.471 141.5H386.221V158H349.471C344.371 158 339.571 157.05 335.071 155.15C330.571 153.25 326.671 150.65 323.371 147.35C320.071 144.05 317.471 140.2 315.571 135.8C313.671 131.3 312.721 126.45 312.721 121.25C312.721 116.15 313.621 111.35 315.421 106.85C317.321 102.35 319.821 98.45 322.921 95.15C326.121 91.85 329.871 89.25 334.171 87.35C338.571 85.45 343.221 84.5 348.121 84.5C352.321 84.5 356.221 85.15 359.821 86.45C363.421 87.75 366.721 89.55 369.721 91.85V57.5Z" fill="#0A0A0A"/>
<path d="M225.123 101C222.123 101 219.323 101.55 216.723 102.65C214.223 103.65 212.023 105.1 210.123 107C208.323 108.9 206.873 111.15 205.773 113.75C204.673 116.25 204.123 119 204.123 122C204.123 125 204.673 127.8 205.773 130.4C206.873 132.9 208.323 135.1 210.123 137C212.023 138.8 214.223 140.25 216.723 141.35C219.323 142.45 222.123 143 225.123 143C229.623 143 233.573 141.85 236.973 139.55C240.473 137.25 242.973 134.15 244.473 130.25H261.723C260.823 134.55 259.223 138.5 256.923 142.1C254.723 145.7 252.023 148.8 248.823 151.4C245.623 153.9 241.973 155.9 237.873 157.4C233.873 158.8 229.623 159.5 225.123 159.5C219.923 159.5 215.023 158.55 210.423 156.65C205.823 154.65 201.823 152 198.423 148.7C195.123 145.3 192.473 141.3 190.473 136.7C188.573 132.1 187.623 127.2 187.623 122C187.623 116.7 188.573 111.8 190.473 107.3C192.473 102.7 195.123 98.7 198.423 95.3C201.823 91.9 205.823 89.25 210.423 87.35C215.023 85.45 219.923 84.5 225.123 84.5C229.623 84.5 233.873 85.25 237.873 86.75C241.973 88.15 245.623 90.15 248.823 92.75C252.023 95.25 254.723 98.3 256.923 101.9C259.223 105.5 260.823 109.45 261.723 113.75H244.473C242.973 109.85 240.473 106.75 236.973 104.45C233.573 102.15 229.623 101 225.123 101Z" fill="#0A0A0A"/>
<circle cx="22.5" cy="123.5" r="22.5" fill="#8B5CF6"/>
</svg>
